<svg width="45" height="34" viewBox="0 0 45 34" fill="none" xmlns="http://www.w3.org/2000/svg">
<path d="M14.559 7.84584H3.92308C1.75222 7.84584 0 9.59806 0 11.7689V16.9997C0 19.1704 1.75222 20.9228 3.92308 20.9228H5.40513L9.32821 23.5381L13.2774 20.9228H14.559C15.4743 20.9228 16.3374 21.0535 17.1744 21.2889L19.7897 14.3843L17.1744 7.47969C16.3374 7.71507 15.4743 7.84584 14.559 7.84584ZM32.8667 10.4612H30.2513C29.5285 10.4612 28.9436 11.0461 28.9436 11.7689V16.9997C28.9436 17.7225 29.5285 18.3074 30.2513 18.3074H32.8667C35.0299 18.3074 36.7897 16.5476 36.7897 14.3843C36.7897 12.221 35.0299 10.4612 32.8667 10.4612ZM43.3282 13.0766H40.7128C39.99 13.0766 39.4051 13.6615 39.4051 14.3843C39.4051 15.1071 39.99 15.692 40.7128 15.692H43.3282C44.051 15.692 44.6359 15.1071 44.6359 14.3843C44.6359 13.6615 44.051 13.0766 43.3282 13.0766ZM39.3387 9.76144L41.1879 7.91096C41.6986 7.40018 41.6986 6.57136 41.1879 6.0618C40.6771 5.55101 39.8495 5.55101 39.3387 6.0618L37.4895 7.91227C36.9788 8.42306 36.9788 9.25187 37.4895 9.76144C38.0004 10.2722 38.8279 10.2722 39.3387 9.76144ZM39.3387 19.0072C38.8279 18.4964 38.0003 18.4964 37.4895 19.0072C36.9788 19.5167 36.9788 20.3455 37.4895 20.8563L39.3387 22.7068C39.8496 23.2176 40.6771 23.2176 41.1879 22.7068C41.6986 22.1972 41.6986 21.3684 41.1879 20.8576L39.3387 19.0072Z" fill="url(#paint0_linear_4822_5403)"/>
<path d="M13.2775 20.9231H5.40515V32.6923C5.40515 33.4245 5.98045 34 6.71284 34H14.559C15.2914 34 15.8667 33.4245 15.8667 32.6923C15.8667 30.26 15.2914 29.2138 14.7421 28.1938C14.1406 27.0691 13.3821 25.6831 13.2775 20.9231ZM30.2513 0C29.5285 0 28.9436 0.584887 28.9436 1.30769V2.74659C26.1839 3.05468 23.925 4.21216 21.7775 5.38769C20.2604 6.22462 18.7697 7.03539 17.1744 7.48V21.2892C18.7698 21.7338 20.2605 22.5445 21.7775 23.3815C23.925 24.5569 26.1839 25.7144 28.9436 26.0225V27.4615C28.9436 28.1843 29.5285 28.7692 30.2513 28.7692C30.9741 28.7692 31.559 28.1843 31.559 27.4615C31.559 27.015 31.559 1.92806 31.559 1.30769C31.559 0.584887 30.9741 0 30.2513 0Z" fill="url(#paint1_linear_4822_5403)"/>
<defs>
<linearGradient id="paint0_linear_4822_5403" x1="22.3179" y1="23.5381" x2="22.3179" y2="5.67873" gradientUnits="userSpaceOnUse">
<stop stop-color="#FFC2CC"/>
<stop offset="1" stop-color="#FFF2F4"/>
</linearGradient>
<linearGradient id="paint1_linear_4822_5403" x1="18.4821" y1="34" x2="18.4821" y2="0" gradientUnits="userSpaceOnUse">
<stop stop-color="#FD3A84"/>
<stop offset="1" stop-color="#FFA68D"/>
</linearGradient>
</defs>
</svg>
