<svg width="41" height="40" viewBox="0 0 41 40" fill="none" xmlns="http://www.w3.org/2000/svg">
<path d="M34.6259 19.6001C33.8454 21.4843 33.7963 23.8138 34.5768 25.698L35.2484 27.0137H6.25777C6.25777 27.0137 0.860288 23.981 6.25777 18.5835L34.9981 17.9912L34.6259 19.6001Z" fill="#2DC97A"/>
<path d="M35.2485 27.013H6.25794C6.25794 27.013 0.860623 23.9801 6.25794 18.5828L34.9984 17.9902L34.6257 19.5995C34.4533 20.0171 34.316 20.456 34.2163 20.9071H7.90966C6.89051 20.9071 6.06179 21.7358 6.06179 22.7542C6.06179 23.7733 6.89051 24.602 7.90966 24.602H34.2261C34.3143 24.9788 34.4312 25.3458 34.5767 25.6972L35.2485 27.013Z" fill="#DEE1E1"/>
<path d="M34.8095 28.2445L8.31003 28.2028C5.13531 28.2028 2.40886 26.1775 2.40886 23.0028C2.40886 22.3016 2.28676 21.3821 2.51666 20.7608C3.32748 18.5691 5.43606 17.0068 7.90964 17.0068H35.0956C35.8117 17.0068 36.3922 17.5874 36.3922 18.3035C36.3922 19.0196 35.8117 19.6001 35.0956 19.6001H14.5205L12.5112 20.0717L10.7637 19.6001H7.90956C6.16704 19.6001 4.75445 21.0127 4.75445 22.7552C4.75445 24.4977 6.16704 25.9103 7.90956 25.9103H35.0955C35.8116 25.9103 36.3921 26.4908 36.3921 27.2069C36.3921 27.2585 36.3891 27.3095 36.3832 27.3596C36.3077 28.0037 35.474 28.2445 34.8095 28.2445Z" fill="#2DC97A"/>
<path d="M36.3828 27.3592C36.3477 27.6559 36.2128 27.9224 36.0126 28.1234C35.7772 28.358 35.4536 28.5034 35.0956 28.5034L21.6647 29.3084L7.90963 28.5034C4.7345 28.5034 2.16089 25.9298 2.16089 22.7547C2.16089 21.9268 2.33579 21.1397 2.65126 20.4287V21.6105C2.65126 24.7856 5.22487 27.3592 8.4 27.3592H36.3828Z" fill="#2DC97A"/>
<path d="M14.5205 23.3796V19.5996H11.8263L10.8696 19.6956L10.9271 23.2162C10.9271 23.3313 11.0429 23.4103 11.1501 23.3683L11.8262 23.2031L12.5825 22.907C12.6208 22.8919 12.6634 22.8919 12.7016 22.907L14.2975 23.5319C14.4047 23.5738 14.5205 23.4948 14.5205 23.3796Z" fill="#FF9933"/>
<path d="M11.8261 19.5996V23.203L10.9868 23.5315C10.8797 23.5732 10.7637 23.4948 10.7637 23.3795V19.5996H11.8261Z" fill="#FF9933"/>
<path d="M30.8996 13.7062V15.5492L30.8179 16.3665C30.8179 16.6827 30.5612 16.9386 30.2458 16.9386L8.46443 16.8568C8.14815 16.8568 7.89234 16.601 7.89234 16.2847L7.72888 13.7062L18.9103 13.1719L30.8996 13.7062Z" fill="#FF9933"/>
<path d="M37.6104 13.8352C37.2718 13.8352 36.9974 13.5607 36.9974 13.2222V6.86394C36.9974 6.52542 37.2718 6.25098 37.6104 6.25098C37.949 6.25098 38.2234 6.52542 38.2234 6.86394V13.2221C38.2234 13.5607 37.9489 13.8352 37.6104 13.8352Z" fill="#77777F"/>
<path d="M36.5148 15.2442C36.0032 16.5054 35.4884 17.7497 34.9767 19.0109C34.6708 19.7648 35.2202 20.5909 36.0275 20.5909L36.9735 20.6726H39.2749C40.0821 20.6726 40.6315 19.8465 40.3257 19.0925L39.2587 16.4624L38.5877 15.2441H36.5148V15.2442Z" fill="#FF9933"/>
<path d="M37.3386 16.9269C38.0111 16.9882 38.7164 16.8116 39.2587 16.4622L38.6849 15.0283L37.7368 15.3118C37.7368 15.3117 37.7369 15.3116 37.7369 15.3115L36.5009 15.1466C36.3448 15.5315 36.1178 16.0781 35.9617 16.4631C35.9617 16.4631 35.9618 16.4631 35.9618 16.4631C35.6063 17.3395 35.2507 18.2159 34.8952 19.0922C34.5895 19.8466 35.1387 20.672 35.9454 20.672H37.253C36.4464 20.672 35.8972 19.8466 36.2028 19.0922C36.4685 18.4378 36.734 17.7834 36.9995 17.1289C37.0545 16.9931 37.1927 16.9136 37.3386 16.9269Z" fill="#FAAB18"/>
<path d="M39.4969 13.8083C39.4969 12.9731 38.9642 12.2634 38.2231 12.0066C38.031 11.94 37.7517 12.0585 37.5373 12.0585C36.4953 12.0585 35.854 12.7566 35.854 13.8083C35.854 14.8601 36.6335 15.4911 37.6755 15.4911C37.89 15.4911 38.031 15.6765 38.2231 15.6099C38.9642 15.3531 39.4969 14.6434 39.4969 13.8083Z" fill="#FF9933"/>
<path d="M38.2232 15.6097C38.0312 15.6767 37.8244 15.7127 37.6103 15.7127C36.5682 15.7127 35.724 14.8594 35.724 13.8076C35.724 12.7566 36.5682 11.9033 37.6103 11.9033C37.8244 11.9033 38.0312 11.9393 38.2232 12.0063C37.482 12.2629 36.9499 12.9731 36.9499 13.8076C36.9499 14.6428 37.482 15.3531 38.2232 15.6097Z" fill="#FAAB18"/>
<path d="M37.7613 7.51918L32.3706 9.38535L30.8996 9.23448L20.4361 13.5169C19.7093 13.7685 18.9189 13.7685 18.1921 13.5169L7.72884 9.40145L6.25773 9.38544L0.86671 7.51918C0.251298 7.30611 0.251298 6.43579 0.86671 6.22281L18.3965 0.154343C18.9909 -0.0514478 19.6372 -0.0514478 20.2315 0.154343L37.7613 6.22281C38.3767 6.43579 38.3767 7.30611 37.7613 7.51918Z" fill="#868491"/>
<path d="M32.3707 8.83181V9.38511L20.436 13.5165C19.7094 13.7682 18.9191 13.7682 18.1917 13.5165L6.25781 9.38511V8.83181C6.25781 7.66556 7.09062 6.67011 8.2389 6.46334C11.8872 5.80951 15.6132 5.47852 19.3139 5.47852C23.0145 5.47852 26.7413 5.80951 30.3896 6.46334C30.9454 6.56386 31.4496 6.85645 31.8109 7.28879C32.1705 7.71786 32.3707 8.26707 32.3707 8.83181Z" fill="#77777F"/>
<path d="M30.8996 8.83239V13.7058H7.97406L7.89233 8.99585C7.89233 8.54307 8.21679 8.15568 8.66221 8.07559C8.89571 8.03374 8.96599 7.82983 9.1999 7.79069C12.5479 7.23077 15.9312 6.9502 19.3138 6.9502C22.9336 6.9502 26.5533 7.27139 30.1297 7.91213C30.352 7.95218 30.5449 8.06905 30.6814 8.23251C30.8187 8.39596 30.8996 8.606 30.8996 8.83239Z" fill="#868491"/>
<path d="M30.8996 15.5492V16.4482C30.8996 16.7645 30.643 17.0203 30.3275 17.0203H8.30098C7.98502 17.0203 7.72888 16.7641 7.72888 16.4482V13.7062L8.46443 13.1719L9.19999 13.7062V15.1405C9.19999 15.3662 9.38297 15.5492 9.60863 15.5492H30.8996Z" fill="#FAAB18"/>
<path d="M9.19999 7.79102V13.7057H7.72888V8.83223C7.72888 8.37946 8.05334 7.99207 8.49876 7.91197C8.7325 7.87029 8.96624 7.82943 9.19999 7.79102Z" fill="#77777F"/>
<path d="M36.7854 37.1749C36.0049 35.2907 36.0049 33.1736 36.7854 31.2894L37.0341 30.1846H3.61456C3.61456 30.1846 -0.147458 34.2745 3.85901 38.2809L37.2518 38.5313L36.7854 37.1749Z" fill="#2DC97A"/>
<path d="M37.2516 38.5316L3.85916 38.2815C-0.147967 34.2752 3.61479 30.1855 3.61479 30.1855L37.1947 30.2476L36.7857 31.2897C36.6345 31.6542 36.5128 32.0269 36.4204 32.4045H5.74871C4.72956 32.4045 3.90084 33.2332 3.90084 34.2515C3.90084 35.2707 4.72956 36.0994 5.74871 36.0994H36.4302C36.5217 36.4639 36.6403 36.8243 36.7857 37.1757L37.2516 38.5316Z" fill="#DEE1E1"/>
<path d="M36.6886 39.7135L6.47363 39.6579C3.29891 39.6579 0.505771 37.8663 0.505771 34.6916C0.505771 33.6841 0.259361 32.2967 0.714749 31.4733C1.69426 29.7022 3.58136 28.5029 5.74846 28.5029H37.2565C37.9726 28.5029 38.5531 29.0834 38.5531 29.7995C38.5531 30.5156 37.9726 31.0962 37.2565 31.0962H29.4498L27.41 31.5477L25.693 31.0962H5.74854C4.00602 31.0962 2.59343 32.5087 2.59343 34.2513C2.59343 35.9938 4.00602 37.4064 5.74854 37.4064H37.2565C37.9726 37.4064 38.5531 37.9869 38.5531 38.703C38.5531 38.783 38.5458 38.8612 38.532 38.9372C38.4217 39.5415 37.3248 39.7135 36.6886 39.7135Z" fill="#FF9933"/>
<path d="M38.5323 38.938C38.4841 39.2028 38.3558 39.4382 38.1735 39.6205C37.9389 39.855 37.6145 40.0005 37.2565 40.0005H5.74875C2.57361 40.0005 0 37.4269 0 34.2517C0 33.1157 0.329364 32.0565 0.899008 31.1641V33.1893C0.899008 36.3644 3.47262 38.938 6.64775 38.938H38.5323Z" fill="#FF9933"/>
<path d="M29.4498 34.9063V31.0957H26.9189L25.7963 31.164L25.8564 34.7428C25.8564 34.858 25.9723 34.937 26.0795 34.895L26.9188 34.6658L27.5118 34.4336C27.5501 34.4186 27.5927 34.4186 27.631 34.4336L29.2268 35.0585C29.3339 35.1005 29.4498 35.0214 29.4498 34.9063Z" fill="#FF9933"/>
<path d="M26.9189 31.0947V34.6654L25.9161 35.0577C25.809 35.0994 25.693 35.0209 25.693 34.9057V31.0947H26.9189Z" fill="#FAAB18"/>
</svg>
