<svg width="32" height="43" viewBox="0 0 32 43" fill="none" xmlns="http://www.w3.org/2000/svg">
<path d="M14.9266 27.7031H17.7162V36.5554H14.9266V27.7031Z" fill="#C9C9C9"/>
<path d="M13.9658 27.6035H18.6769V30.8171H13.9658V27.6035Z" fill="#262626"/>
<path d="M13.9658 34.9521H18.6769V38.1657H13.9658V34.9521Z" fill="#262626"/>
<path d="M13.2039 17.1543H19.4389V25.3175H13.2039V17.1543Z" fill="#3A3A3A"/>
<path d="M24.3819 1.46434L25.9059 20.461C25.9788 21.3887 25.2499 22.1771 24.3223 22.1771H8.32057C7.39293 22.1771 6.66408 21.3887 6.73696 20.461L8.26094 1.46434C8.32057 0.636094 9.0163 0 9.83792 0H22.7983C23.6266 0 24.3157 0.636094 24.3819 1.46434Z" fill="#6699FF"/>
<path d="M23.3283 17.0552C23.3283 18.0027 22.5663 18.7647 21.6188 18.7647C20.6713 18.7647 19.9093 18.0027 19.9093 17.0552C19.9093 16.1077 20.6713 15.3457 21.6188 15.3457C22.5663 15.3457 23.3283 16.1077 23.3283 17.0552Z" fill="black"/>
<path d="M12.7267 17.0552C12.7267 18.0027 11.9648 18.7647 11.0172 18.7647C10.0697 18.7647 9.30774 18.0027 9.30774 17.0552C9.30774 16.1077 10.0697 15.3457 11.0172 15.3457C11.9648 15.3457 12.7267 16.1077 12.7267 17.0552Z" fill="black"/>
<path d="M18.0275 11.0845C18.0275 12.032 17.2655 12.794 16.318 12.794C15.3705 12.794 14.6085 12.032 14.6085 11.0845C14.6085 10.137 15.3705 9.375 16.318 9.375C17.2655 9.375 18.0275 10.137 18.0275 11.0845Z" fill="#4785EA"/>
<path d="M22.1092 5.11478C22.1092 6.06229 21.3472 6.82428 20.3997 6.82428C19.4522 6.82428 18.6902 6.06229 18.6902 5.11478C18.6902 4.16726 19.4522 3.40527 20.3997 3.40527C21.3472 3.40527 22.1092 4.16726 22.1092 5.11478Z" fill="black"/>
<path d="M13.946 5.11478C13.946 6.06229 13.184 6.82428 12.2365 6.82428C11.289 6.82428 10.527 6.06229 10.527 5.11478C10.527 4.16726 11.289 3.40527 12.2365 3.40527C13.184 3.40527 13.946 4.16726 13.946 5.11478Z" fill="black"/>
<path d="M4.05999 25.6689C3.98048 26.8549 4.92137 27.8554 6.10742 27.8554H26.5353C27.7214 27.8554 28.6622 26.8549 28.5827 25.6689C28.5098 24.5888 27.6153 23.7539 26.5353 23.7539H6.10742C5.02738 23.7473 4.13288 24.5888 4.05999 25.6689Z" fill="#6699FF"/>
<path d="M26.1841 28.6242H6.45856C5.53755 28.6242 4.64967 28.2332 4.02682 27.5574C3.40398 26.8815 3.08594 25.9671 3.15882 25.0461L3.74853 17.6648C3.78166 17.2076 4.18585 16.8697 4.63641 16.9094C5.09361 16.9426 5.43153 17.3467 5.39178 17.7973L4.80869 25.1786C4.76893 25.6425 4.92796 26.093 5.23938 26.431C5.55743 26.7755 5.98811 26.961 6.45193 26.961H26.1775C26.6413 26.961 27.0786 26.7689 27.39 26.431C27.7081 26.0864 27.8605 25.6425 27.8207 25.1786L27.231 17.7973C27.1912 17.3401 27.5358 16.9426 27.9864 16.9094C28.4436 16.8763 28.8411 17.2142 28.8742 17.6648L29.464 25.0461C29.5368 25.9671 29.2188 26.8815 28.5959 27.5574C27.993 28.2332 27.1051 28.6242 26.1841 28.6242Z" fill="#3A3A3A"/>
<path d="M25.8992 18.7649C25.4884 18.7649 25.1306 18.4601 25.0776 18.0427C25.018 17.5921 25.3427 17.1747 25.7932 17.115L29.6827 16.6181C30.1332 16.5651 30.5507 16.8831 30.6103 17.3337C30.6699 17.7842 30.3453 18.2017 29.8947 18.2613L26.0053 18.7583C25.9655 18.7649 25.9324 18.7649 25.8992 18.7649Z" fill="#3A3A3A"/>
<path d="M6.74353 18.7649C6.7104 18.7649 6.67064 18.7649 6.63751 18.7583L2.74806 18.2613C2.2975 18.2017 1.97282 17.7909 2.03246 17.3337C2.09209 16.8831 2.5029 16.5651 2.96009 16.6181L6.84954 17.115C7.30011 17.1747 7.62478 17.5855 7.56515 18.0427C7.51214 18.4601 7.15434 18.7649 6.74353 18.7649Z" fill="#3A3A3A"/>
<path d="M27.4894 40.4777L27.284 41.1337L16.3313 38.2911V36.5684L27.4894 40.4777Z" fill="#262626"/>
<path d="M5.1731 40.4777L5.3785 41.1337L16.3312 38.2911V36.5684L5.1731 40.4777Z" fill="#262626"/>
<path d="M28.9339 41.2465C28.9339 41.8892 28.4171 42.4061 27.7744 42.4061C27.1383 42.4061 26.6215 41.8892 26.6215 41.2465C26.6215 40.6038 27.1383 40.087 27.7744 40.087C28.4105 40.0804 28.9339 40.6038 28.9339 41.2465Z" fill="black"/>
<path d="M6.02792 41.2465C6.02792 41.8892 5.5111 42.4061 4.86838 42.4061C4.23228 42.4061 3.71545 41.8892 3.71545 41.2465C3.71545 40.6038 4.23228 40.087 4.86838 40.087C5.50447 40.0804 6.02792 40.6038 6.02792 41.2465Z" fill="black"/>
<path d="M30.3321 6.95771C30.882 8.09075 30.405 9.4557 29.2719 9.99903L28.1786 10.5291L26.2041 6.42763L27.2974 5.89755C28.4238 5.35422 29.7888 5.82466 30.3321 6.95771Z" fill="#4D4D4D"/>
<path d="M24.9319 1.28549L24.1567 2.46492C21.7978 6.06282 18.4981 8.95837 14.6219 10.8269L14.5424 10.8667L17.4644 16.9029L17.5373 16.8698C21.4201 14.9946 25.7403 14.2061 30.0405 14.5971L31.432 14.723C31.8362 14.7627 32.1211 14.3453 31.9488 13.9809L25.833 1.34513C25.6607 0.980699 25.1505 0.947569 24.9319 1.28549Z" fill="#FFCC00"/>
<path d="M14.2574 10.9258L17.2457 17.1078L14.6417 18.3668C14.2773 18.5457 13.84 18.3933 13.6677 18.0288L11.3155 13.1654C11.1366 12.8009 11.289 12.3636 11.6534 12.1913L14.2574 10.9258Z" fill="#4D4D4D"/>
<path d="M17.4644 9.00508L20.7509 15.7967C20.8834 16.0684 20.7707 16.393 20.4991 16.5256L16.1061 18.6525C15.8344 18.785 15.5097 18.6724 15.3772 18.4007L12.0907 11.6025C11.9582 11.3308 12.0708 11.0061 12.3425 10.8736L16.7355 8.74666C17.0072 8.61414 17.3319 8.73341 17.4644 9.00508Z" fill="#F2F2F2"/>
<path d="M19.3542 17.8584L21.1313 16.9995L21.9931 18.7825L20.2161 19.6414L19.3542 17.8584Z" fill="#F2F2F2"/>
<path d="M23.8187 22.9124L19.8232 16.8496L17.0801 18.1748L21.0822 24.2376L23.8187 22.9124Z" fill="#4D4D4D"/>
<path d="M3.52334 8.46773L3.09265 7.97078L9.96379 1.94776C10.4276 1.54358 11.2227 1.69598 11.4944 2.25256L15.5429 10.429L14.9531 10.7206L10.9047 2.5441C10.8119 2.35857 10.5469 2.30557 10.3945 2.44471L3.52334 8.46773Z" fill="#4D4D4D"/>
<path d="M17.6963 11.0124L16.8349 15.3524C16.7422 15.8361 16.2651 16.1542 15.7814 16.0548L0.720551 13.0731C0.236855 12.9803 -0.081192 12.5032 0.0181977 12.0195L0.879575 7.67954C0.972338 7.19584 1.44941 6.87779 1.93311 6.97718L16.9939 9.95887C17.4776 10.0583 17.7957 10.5287 17.6963 11.0124Z" fill="#FF3333"/>
<path d="M2.3307 11.5359L2.09216 8.87891L2.54273 8.96504L2.69513 10.9263L3.56976 9.16382L4.0137 9.24996L2.77464 11.6154L2.3307 11.5359Z" fill="white"/>
<path d="M5.37862 12.1392L4.92805 12.0531L4.86179 11.4501L4.03355 11.2845L3.74863 11.8212L3.30469 11.735L4.60338 9.38281L5.04732 9.46895L5.37862 12.1392ZM4.80878 10.9929L4.70939 10.0057L4.24558 10.8869L4.80878 10.9929Z" fill="white"/>
<path d="M7.09474 11.516L7.4658 11.7546C7.34653 12.0262 7.20076 12.2118 7.02848 12.3112C6.85621 12.4106 6.66405 12.4437 6.45202 12.3973C6.18036 12.3443 5.9882 12.1985 5.86231 11.96C5.71654 11.6817 5.68341 11.3438 5.76292 10.933C5.84906 10.5023 6.00808 10.1908 6.25324 9.98544C6.46527 9.80654 6.71043 9.74691 6.99535 9.80654C7.22726 9.85292 7.40616 9.97219 7.53206 10.1577C7.61819 10.2902 7.6712 10.4758 7.67783 10.7077L7.24051 10.7474C7.24051 10.6083 7.20738 10.489 7.14775 10.4029C7.08149 10.3167 6.99535 10.2571 6.88934 10.2372C6.73694 10.2041 6.59779 10.2505 6.47852 10.3631C6.35926 10.4758 6.26649 10.6878 6.20686 10.9926C6.14723 11.3106 6.14723 11.5425 6.21349 11.6949C6.27975 11.8473 6.39239 11.9401 6.53816 11.9666C6.6508 11.9865 6.75019 11.9666 6.84958 11.8937C6.94234 11.8208 7.02848 11.6949 7.09474 11.516Z" fill="white"/>
<path d="M9.53316 12.9605L9.08259 12.8744L9.01633 12.2714L8.18809 12.1058L7.90317 12.6425L7.45923 12.5563L8.75792 10.2041L9.20186 10.2902L9.53316 12.9605ZM8.96332 11.8142L8.86393 10.8269L8.40012 11.7082L8.96332 11.8142Z" fill="white"/>
<path d="M9.75842 13.0073L10.2554 10.4961L10.6596 10.5756L11.1698 12.4243L11.5011 10.7479L11.892 10.8274L11.395 13.3386L10.9776 13.2525L10.474 11.4502L10.1494 13.0869L9.75842 13.0073Z" fill="white"/>
<path d="M13.3364 12.7553L13.7075 12.9938C13.5882 13.2655 13.4425 13.451 13.2702 13.5504C13.0979 13.6498 12.9058 13.6829 12.6937 13.6366C12.4221 13.5835 12.2299 13.4378 12.104 13.1992C11.9582 12.921 11.9251 12.583 12.0046 12.1722C12.0908 11.7415 12.2498 11.4301 12.4949 11.2247C12.707 11.0458 12.9521 10.9862 13.2371 11.0458C13.469 11.0922 13.6479 11.2114 13.7738 11.397C13.8599 11.5295 13.9129 11.715 13.9195 11.9469L13.4822 11.9867C13.4822 11.8475 13.4491 11.7283 13.3894 11.6421C13.3232 11.556 13.237 11.4964 13.131 11.4765C12.9786 11.4434 12.8395 11.4897 12.7202 11.6024C12.601 11.715 12.5082 11.9271 12.4486 12.2318C12.3889 12.5499 12.3889 12.7818 12.4552 12.9342C12.5214 13.0866 12.6341 13.1794 12.7799 13.2059C12.8925 13.2257 12.9919 13.2059 13.0913 13.133C13.1774 13.0535 13.2636 12.9342 13.3364 12.7553Z" fill="white"/>
<path d="M14.4495 13.9342L14.6616 12.874L14.1978 11.2705L14.6881 11.3699L14.973 12.4632L15.6488 11.5621L16.1259 11.6548L15.079 12.9668L14.867 14.0203L14.4495 13.9342Z" fill="white"/>
<path d="M11.9714 2.21312C12.0973 2.92873 11.6136 3.60458 10.9047 3.73047C10.1891 3.85637 9.5132 3.3793 9.39394 2.67032C9.26804 1.95471 9.74511 1.27886 10.4541 1.15297C11.1631 1.02045 11.8455 1.49752 11.9714 2.21312Z" fill="#F2F2F2"/>
<path d="M11.1962 2.34522C11.2426 2.63014 11.0571 2.89518 10.7722 2.94818C10.4872 3.00119 10.2222 2.80904 10.1692 2.52412C10.1162 2.23921 10.3083 1.96754 10.5933 1.92116C10.8716 1.87478 11.1432 2.0603 11.1962 2.34522Z" fill="#D6D6D4"/>
</svg>
