<svg width="40" height="48" viewBox="0 0 40 48" fill="none" xmlns="http://www.w3.org/2000/svg">
<path d="M5.52034 3.5668C-7.10486 14.719 9.14304 25.5291 7.59548 37.715C6.90744 43.1328 9.09323 48.3121 16.2443 47.7203C24.9592 46.9989 21.7957 38.6512 23.6207 33.0938C26.761 23.5311 46.0794 25.7646 38.0715 11.0346C32.961 1.6345 14.21 -4.10896 5.52034 3.5668Z" fill="url(#paint0_linear_4822_5189)"/>
<path d="M14.4078 15.5957V39.6033H31.7222C33.7831 39.6033 35.4539 37.9325 35.4539 35.8716V16.5286C35.4539 16.0134 35.0363 15.5957 34.521 15.5957H14.4078Z" fill="#B7C5FF"/>
<path d="M35.4539 16.5286V26.0288H14.4077V15.5957H34.521C35.036 15.5957 35.4539 16.0127 35.4539 16.5286Z" fill="#8399FE"/>
<path d="M27.524 35.8714V9.09603C27.524 8.58076 27.1063 8.16309 26.591 8.16309H6.15962C5.64436 8.16309 5.22668 8.58076 5.22668 9.09603V35.8714C5.22668 37.9324 6.89749 39.6032 8.95845 39.6032H31.2557C29.1948 39.6032 27.524 37.9324 27.524 35.8714Z" fill="white"/>
<path d="M10.6972 17.9078C10.5622 17.9078 10.4306 17.8491 10.3402 17.7417L8.49617 15.5514V17.4413C8.49617 17.6989 8.28729 17.9078 8.0297 17.9078C7.77212 17.9078 7.56323 17.6989 7.56323 17.4413V14.2731C7.56323 14.0771 7.68573 13.9021 7.8698 13.8349C8.05387 13.7678 8.26033 13.8228 8.38655 13.9727L10.2306 16.163V14.2733C10.2306 14.0157 10.4395 13.8068 10.6971 13.8068C10.9547 13.8068 11.1635 14.0157 11.1635 14.2733V17.4413C11.1635 17.6373 11.041 17.8123 10.857 17.8795C10.8047 17.8985 10.7507 17.9078 10.6972 17.9078Z" fill="#FF5BA8"/>
<path d="M14.4203 17.9078H12.6363C12.3787 17.9078 12.1698 17.6989 12.1698 17.4413V14.2731C12.1698 14.0155 12.3787 13.8066 12.6363 13.8066H14.4203C14.6779 13.8066 14.8868 14.0155 14.8868 14.2731C14.8868 14.5307 14.6779 14.7396 14.4203 14.7396H13.1027V16.9748H14.4203C14.6779 16.9748 14.8868 17.1837 14.8868 17.4413C14.8868 17.6989 14.6779 17.9078 14.4203 17.9078Z" fill="#FF5BA8"/>
<path d="M23.6064 17.9078H22.6144C22.3568 17.9078 22.1479 17.6989 22.1479 17.4413C22.1479 17.1837 22.3568 16.9748 22.6144 16.9748H23.6064C23.7859 16.9748 23.932 16.8288 23.932 16.6492C23.932 16.4697 23.7859 16.3236 23.6064 16.3236H23.4064C22.7125 16.3236 22.1479 15.7591 22.1479 15.0652C22.1479 14.3713 22.7125 13.8066 23.4064 13.8066H24.3985C24.6561 13.8066 24.865 14.0155 24.865 14.2731C24.865 14.5307 24.6561 14.7396 24.3985 14.7396H23.4064C23.2269 14.7396 23.0809 14.8856 23.0809 15.0652C23.0809 15.2447 23.2269 15.3907 23.4064 15.3907H23.6064C24.3004 15.3907 24.865 15.9553 24.865 16.6492C24.865 17.3432 24.3003 17.9078 23.6064 17.9078Z" fill="#FF5BA8"/>
<path d="M17.5082 17.9078C17.5081 17.9078 17.5081 17.9078 17.5081 17.9078C17.3288 17.9078 17.1653 17.8049 17.0877 17.6433L15.5662 14.4751C15.4547 14.2429 15.5526 13.9643 15.7848 13.8527C16.0168 13.7413 16.2957 13.839 16.4072 14.0713L17.5084 16.3641L18.0859 15.1625C18.1975 14.9303 18.476 14.8324 18.7083 14.9442C18.9405 15.0558 19.0383 15.3345 18.9266 15.5667L17.9285 17.6435C17.851 17.805 17.6875 17.9078 17.5082 17.9078Z" fill="black"/>
<path d="M19.5041 17.9074C19.3248 17.9074 19.1614 17.8046 19.0836 17.6429L17.5617 14.4752C17.4502 14.243 17.548 13.9644 17.7802 13.8528C18.0123 13.7412 18.2912 13.839 18.4027 14.0713L19.5041 16.3638L20.6056 14.0712C20.7172 13.839 20.9958 13.7412 21.2281 13.8528C21.4603 13.9644 21.5581 14.243 21.4465 14.4752L19.9246 17.6429C19.8469 17.8046 19.6834 17.9074 19.5041 17.9074Z" fill="black"/>
<path d="M13.6086 16.3236H12.6361C12.3786 16.3236 12.1697 16.1147 12.1697 15.8571C12.1697 15.5995 12.3786 15.3906 12.6361 15.3906H13.6086C13.8662 15.3906 14.0751 15.5995 14.0751 15.8571C14.0751 16.1147 13.8663 16.3236 13.6086 16.3236Z" fill="#FF5BA8"/>
<path d="M14.405 20.1237V33.1149C14.405 33.3724 14.196 33.5814 13.9385 33.5814H8.01432C7.75683 33.5814 7.54785 33.3724 7.54785 33.1149V20.1237C7.54785 19.8662 7.75683 19.6572 8.01432 19.6572H13.9385C14.196 19.6572 14.405 19.8662 14.405 20.1237Z" fill="#02FFB3"/>
<path d="M25.3592 31.7152H16.0124C15.7547 31.7152 15.5459 31.5063 15.5459 31.2487C15.5459 30.9911 15.7547 30.7822 16.0124 30.7822H25.3592C25.6169 30.7822 25.8257 30.9911 25.8257 31.2487C25.8257 31.5063 25.6169 31.7152 25.3592 31.7152Z" fill="#B7C5FF"/>
<path d="M25.3592 33.5814H16.0124C15.7547 33.5814 15.5459 33.3725 15.5459 33.1149C15.5459 32.8573 15.7547 32.6484 16.0124 32.6484H25.3592C25.6169 32.6484 25.8257 32.8573 25.8257 33.1149C25.8257 33.3725 25.6169 33.5814 25.3592 33.5814Z" fill="#B7C5FF"/>
<path d="M25.3593 35.4466H7.78117C7.52349 35.4466 7.3147 35.2377 7.3147 34.9801C7.3147 34.7226 7.52349 34.5137 7.78117 34.5137H25.3593C25.617 34.5137 25.8258 34.7226 25.8258 34.9801C25.8258 35.2377 25.6169 35.4466 25.3593 35.4466Z" fill="#B7C5FF"/>
<path d="M25.3593 37.3128H7.78117C7.52349 37.3128 7.3147 37.1039 7.3147 36.8464C7.3147 36.5888 7.52349 36.3799 7.78117 36.3799H25.3593C25.617 36.3799 25.8258 36.5888 25.8258 36.8464C25.8258 37.1039 25.6169 37.3128 25.3593 37.3128Z" fill="#B7C5FF"/>
<path d="M25.3592 26.1175H16.0124C15.7547 26.1175 15.5459 25.9086 15.5459 25.651C15.5459 25.3935 15.7547 25.1846 16.0124 25.1846H25.3592C25.6169 25.1846 25.8257 25.3935 25.8257 25.651C25.8257 25.9086 25.6169 26.1175 25.3592 26.1175Z" fill="#B7C5FF"/>
<path d="M25.3592 27.9837H16.0124C15.7547 27.9837 15.5459 27.7748 15.5459 27.5173C15.5459 27.2597 15.7547 27.0508 16.0124 27.0508H25.3592C25.6169 27.0508 25.8257 27.2597 25.8257 27.5173C25.8257 27.7748 25.6169 27.9837 25.3592 27.9837Z" fill="#B7C5FF"/>
<path d="M25.3592 29.849H16.0124C15.7547 29.849 15.5459 29.6401 15.5459 29.3825C15.5459 29.1249 15.7547 28.916 16.0124 28.916H25.3592C25.6169 28.916 25.8257 29.1249 25.8257 29.3825C25.8257 29.6401 25.6169 29.849 25.3592 29.849Z" fill="#B7C5FF"/>
<path d="M25.3592 20.5199H16.0124C15.7547 20.5199 15.5459 20.311 15.5459 20.0534C15.5459 19.7958 15.7547 19.5869 16.0124 19.5869H25.3592C25.6169 19.5869 25.8257 19.7958 25.8257 20.0534C25.8257 20.311 25.6169 20.5199 25.3592 20.5199Z" fill="#B7C5FF"/>
<path d="M25.3592 22.3861H16.0124C15.7547 22.3861 15.5459 22.1772 15.5459 21.9196C15.5459 21.662 15.7547 21.4531 16.0124 21.4531H25.3592C25.6169 21.4531 25.8257 21.662 25.8257 21.9196C25.8257 22.1772 25.6169 22.3861 25.3592 22.3861Z" fill="#B7C5FF"/>
<path d="M25.3592 24.2513H16.0124C15.7547 24.2513 15.5459 24.0424 15.5459 23.7848C15.5459 23.5272 15.7547 23.3184 16.0124 23.3184H25.3592C25.6169 23.3184 25.8257 23.5272 25.8257 23.7848C25.8257 24.0425 25.6169 24.2513 25.3592 24.2513Z" fill="#B7C5FF"/>
<path d="M10.4316 29.2457C11.2264 28.6533 12.5512 28.2176 14.405 27.9406V27.1541C12.29 27.4153 10.5855 27.9107 9.29245 28.6375C8.44441 29.1151 7.86319 29.6684 7.54785 30.3V32.6584C7.69339 32.9243 7.89491 33.1641 8.15333 33.3768C8.24289 33.4514 8.33898 33.5195 8.44068 33.5811H13.0335C13.4468 33.3451 13.904 32.9803 14.405 32.4886V30.9931C14.2352 31.4139 13.987 31.7936 13.6595 32.1323C12.9785 32.8366 12.1743 33.1883 11.246 33.1883C10.7264 33.1883 10.3056 33.0176 9.98283 32.6752C9.66003 32.3328 9.49863 31.8589 9.49863 31.2525C9.49863 30.3867 9.8093 29.7178 10.4316 29.2457ZM12.6035 22.3877C11.1789 22.3877 10.0276 22.7105 9.15064 23.3552C8.27275 24.0007 7.83426 24.7126 7.83426 25.4925C7.83426 25.9095 7.96581 26.2519 8.22983 26.5188C8.49292 26.7865 8.82132 26.9209 9.21502 26.9209C9.58539 26.9209 9.88393 26.808 10.1125 26.5841C10.3401 26.3602 10.4549 26.0709 10.4549 25.7164C10.4549 25.4729 10.3401 25.193 10.1125 24.8786C9.92312 24.6268 9.82889 24.442 9.82889 24.3235C9.82889 24.1192 10.0061 23.9103 10.3607 23.6975C10.8561 23.4149 11.4466 23.2731 12.1314 23.2731C12.8703 23.2731 13.4804 23.4858 13.9609 23.9103C14.1437 24.0726 14.2921 24.247 14.405 24.4346V22.62C13.889 22.4651 13.2882 22.3877 12.6035 22.3877Z" fill="#00D890"/>
<path d="M22.7951 11.3815C22.5375 11.3815 22.3286 11.1727 22.3286 10.9151V10.5885C22.3286 10.331 22.5375 10.1221 22.7951 10.1221C23.0527 10.1221 23.2616 10.331 23.2616 10.5885V10.9151C23.2616 11.1727 23.0527 11.3815 22.7951 11.3815Z" fill="#FFC4DF"/>
<path d="M24.2178 11.3815C23.9602 11.3815 23.7513 11.1727 23.7513 10.9151V10.5885C23.7513 10.331 23.9602 10.1221 24.2178 10.1221C24.4754 10.1221 24.6843 10.331 24.6843 10.5885V10.9151C24.6843 11.1727 24.4754 11.3815 24.2178 11.3815Z" fill="#FFC4DF"/>
<path d="M17.5158 12.0346H8.01432C7.75674 12.0346 7.54785 11.8257 7.54785 11.5681V10.5885C7.54785 10.331 7.75674 10.1221 8.01432 10.1221H17.5157C17.7732 10.1221 17.9821 10.331 17.9821 10.5885V11.5681C17.9822 11.8257 17.7733 12.0346 17.5158 12.0346Z" fill="#FF5BA8"/>
<path d="M32.4685 35.4473H30.9136C30.656 35.4473 30.4471 35.2385 30.4471 34.9809V21.279C30.4471 21.0214 30.656 20.8125 30.9136 20.8125H32.4685C32.7261 20.8125 32.935 21.0214 32.935 21.279V34.9809C32.935 35.2386 32.7262 35.4473 32.4685 35.4473Z" fill="#97FFD2"/>
<path d="M32.935 21.279V26.0295H30.4469V21.279C30.4469 21.0215 30.6559 20.8125 30.9134 20.8125H32.4686C32.7261 20.8125 32.935 21.0215 32.935 21.279Z" fill="#02FFB3"/>
<path d="M1.49277 28.8154C1.37336 28.8154 1.25404 28.7699 1.16289 28.6788L0.136652 27.6526C-0.0455508 27.4704 -0.0455508 27.175 0.136652 26.9929L1.16289 25.9667C1.34509 25.7846 1.64037 25.7846 1.82257 25.9667L2.8488 26.9929C3.03101 27.1751 3.03101 27.4705 2.8488 27.6526L1.82257 28.6788C1.73151 28.7698 1.61219 28.8154 1.49277 28.8154ZM1.12622 27.3227L1.49277 27.6892L1.85933 27.3227L1.49277 26.9561L1.12622 27.3227Z" fill="#01ECA5"/>
<path d="M33.4016 12.8847C33.2822 12.8847 33.1628 12.8392 33.0717 12.7481L32.0455 11.7219C31.8633 11.5397 31.8633 11.2443 32.0455 11.0622L33.0717 10.036C33.2539 9.85389 33.5492 9.85389 33.7314 10.036L34.7576 11.0622C34.9398 11.2444 34.9398 11.5398 34.7576 11.7219L33.7314 12.7481C33.6403 12.8392 33.521 12.8847 33.4016 12.8847ZM33.0351 11.392L33.4017 11.7586L33.7682 11.392L33.4017 11.0255L33.0351 11.392Z" fill="#6583FE"/>
<path d="M25.8258 44.5147C25.5682 44.5147 25.3594 44.3058 25.3594 44.0482C25.3594 43.7395 25.1083 43.4885 24.7996 43.4885C24.542 43.4885 24.3331 43.2796 24.3331 43.022C24.3331 42.7644 24.542 42.5555 24.7996 42.5555C25.1083 42.5555 25.3594 42.3044 25.3594 41.9958C25.3594 41.7382 25.5682 41.5293 25.8258 41.5293C26.0834 41.5293 26.2923 41.7382 26.2923 41.9958C26.2923 42.3045 26.5434 42.5555 26.8521 42.5555C27.1097 42.5555 27.3185 42.7644 27.3185 43.022C27.3185 43.2796 27.1097 43.4885 26.8521 43.4885C26.5434 43.4885 26.2923 43.7395 26.2923 44.0482C26.2923 44.3059 26.0834 44.5147 25.8258 44.5147Z" fill="#FF7EB8"/>
<path d="M30.4469 8.32623C30.1893 8.32623 29.9805 8.11734 29.9805 7.85976C29.9805 7.55105 29.7294 7.29999 29.4207 7.29999C29.1631 7.29999 28.9542 7.09111 28.9542 6.83352C28.9542 6.57594 29.1631 6.36705 29.4207 6.36705C29.7294 6.36705 29.9805 6.116 29.9805 5.80729C29.9805 5.54971 30.1893 5.34082 30.4469 5.34082C30.7045 5.34082 30.9134 5.54971 30.9134 5.80729C30.9134 6.116 31.1645 6.36705 31.4732 6.36705C31.7307 6.36705 31.9396 6.57594 31.9396 6.83352C31.9396 7.09111 31.7307 7.29999 31.4732 7.29999C31.1645 7.29999 30.9134 7.55105 30.9134 7.85976C30.9134 8.11734 30.7046 8.32623 30.4469 8.32623Z" fill="#FF7EB8"/>
<path d="M7.54788 6.87896C7.2903 6.87896 7.08141 6.67008 7.08141 6.41249C7.08141 6.10378 6.83036 5.85273 6.52165 5.85273C6.26406 5.85273 6.05518 5.64384 6.05518 5.38626C6.05518 5.12867 6.26406 4.91979 6.52165 4.91979C6.83036 4.91979 7.08141 4.66873 7.08141 4.36002C7.08141 4.10244 7.2903 3.89355 7.54788 3.89355C7.80546 3.89355 8.01435 4.10244 8.01435 4.36002C8.01435 4.66873 8.26541 4.91979 8.57412 4.91979C8.8317 4.91979 9.04059 5.12867 9.04059 5.38626C9.04059 5.64384 8.8317 5.85273 8.57412 5.85273C8.26541 5.85273 8.01435 6.10378 8.01435 6.41249C8.01435 6.67008 7.80546 6.87896 7.54788 6.87896Z" fill="#6583FE"/>
<path d="M27.5241 35.8714V9.09603C27.5241 8.58076 27.1064 8.16309 26.5911 8.16309H6.15975C5.64448 8.16309 5.22681 8.58076 5.22681 9.09603V35.8714C5.22681 37.9324 6.89761 39.6032 8.95857 39.6032H31.2558C29.1949 39.6032 27.5241 37.9324 27.5241 35.8714Z" fill="url(#paint1_linear_4822_5189)"/>
<defs>
<linearGradient id="paint0_linear_4822_5189" x1="0.680997" y1="23.8833" x2="40" y2="23.8833" gradientUnits="userSpaceOnUse">
<stop offset="0.0485" stop-color="#FFDBED"/>
<stop offset="0.9993" stop-color="#D2DEFF"/>
</linearGradient>
<linearGradient id="paint1_linear_4822_5189" x1="18.2413" y1="8.16309" x2="18.2413" y2="39.6032" gradientUnits="userSpaceOnUse">
<stop offset="0.0028" stop-color="#FF7EB8" stop-opacity="0"/>
<stop offset="1" stop-color="#FF7EB8" stop-opacity="0.6"/>
</linearGradient>
</defs>
</svg>
