<svg width="20" height="20" viewBox="0 0 20 20" fill="none" xmlns="http://www.w3.org/2000/svg">
<path d="M13.4375 5.625C13.2844 7.69023 11.7188 9.375 10 9.375C8.28128 9.375 6.71292 7.69063 6.56253 5.625C6.40628 3.47656 7.92972 1.875 10 1.875C12.0703 1.875 13.5938 3.51562 13.4375 5.625Z" stroke="url(#paint0_linear_4822_6225)" stroke-width="1.25" stroke-linecap="round" stroke-linejoin="round"/>
<path d="M9.99997 11.875C6.60154 11.875 3.15232 13.75 2.51404 17.2891C2.43708 17.7156 2.67849 18.125 3.12497 18.125H16.875C17.3218 18.125 17.5633 17.7156 17.4863 17.2891C16.8476 13.75 13.3984 11.875 9.99997 11.875Z" stroke="url(#paint1_linear_4822_6225)" stroke-width="1.25" stroke-miterlimit="10"/>
<defs>
<linearGradient id="paint0_linear_4822_6225" x1="10" y1="1.875" x2="10" y2="9.375" gradientUnits="userSpaceOnUse">
<stop stop-color="#2DC97A"/>
<stop offset="1" stop-color="#FF9933"/>
</linearGradient>
<linearGradient id="paint1_linear_4822_6225" x1="10.0002" y1="11.875" x2="10.0002" y2="18.125" gradientUnits="userSpaceOnUse">
<stop stop-color="#2DC97A"/>
<stop offset="1" stop-color="#FF9933"/>
</linearGradient>
</defs>
</svg>
