<svg width="41" height="40" viewBox="0 0 41 40" fill="none" xmlns="http://www.w3.org/2000/svg">
<path d="M13.2103 13.1036V6.89672C13.2103 6.16509 13.501 5.46342 14.0183 4.94608C14.5357 4.42874 15.2373 4.1381 15.9689 4.1381H16.6586C17.0244 4.1381 17.3753 4.28342 17.6339 4.54209C17.8926 4.80076 18.0379 5.15159 18.0379 5.51741C18.0379 4.78578 18.3286 4.08411 18.8459 3.56677C19.3632 3.04943 20.0649 2.75879 20.7965 2.75879H22.8655C23.9629 2.75879 25.0154 3.19475 25.7915 3.97076C26.5675 4.74677 27.0034 5.79927 27.0034 6.89672V13.1036H13.2103Z" fill="#58595B"/>
<path d="M13.8999 12.4141C13.5345 12.4152 13.1843 12.5608 12.9258 12.8193C12.6674 13.0777 12.5217 13.4279 12.5206 13.7934V14.483C12.5217 14.8485 12.6674 15.1987 12.9258 15.4571C13.1843 15.7156 13.5345 15.8612 13.8999 15.8623H15.2793V12.4141H13.8999Z" fill="#FFAC96"/>
<path d="M26.3138 15.8623C26.6792 15.8612 27.0294 15.7156 27.2879 15.4571C27.5463 15.1987 27.692 14.8485 27.6931 14.483V13.7934C27.692 13.4279 27.5463 13.0777 27.2879 12.8193C27.0294 12.5608 26.6792 12.4152 26.3138 12.4141H24.9344V15.8623H26.3138Z" fill="#FFAC96"/>
<path d="M23.5552 9.65527H16.6586C16.2931 9.65636 15.9429 9.80203 15.6845 10.0605C15.4261 10.3189 15.2804 10.6691 15.2793 11.0346V15.8622C15.2781 16.6959 15.4937 17.5157 15.9047 18.2411C16.3158 18.9665 16.9083 19.5726 17.6241 20.0001H22.5896C23.3055 19.5726 23.898 18.9665 24.3091 18.2411C24.7201 17.5157 24.9356 16.6959 24.9345 15.8622V11.0346C24.9334 10.6691 24.7877 10.3189 24.5293 10.0605C24.2708 9.80203 23.9206 9.65636 23.5552 9.65527Z" fill="#FFBCAB"/>
<path d="M30.4518 23.5039C31.2911 23.986 31.9883 24.6812 32.4727 25.5192C32.9571 26.3573 33.2116 27.3084 33.2104 28.2763V30.1867C32.8329 29.8439 32.341 29.6545 31.8311 29.6556H30.4518V23.5039Z" fill="#ED1C24"/>
<path d="M9.76204 29.6556H8.38273C7.87283 29.6545 7.3809 29.8439 7.00342 30.1867V28.2763C7.00224 27.3084 7.25673 26.3573 7.74113 25.5192C8.22554 24.6812 8.92269 23.986 9.76204 23.5039V29.6556Z" fill="#ED1C24"/>
<path d="M1.62138 20.1624L4.24483 18.2562L6.86828 20.1624L5.86621 17.0782L8.48965 15.172H5.2469L4.24483 12.0879L3.24276 15.172H0L2.62345 17.0782L1.62138 20.1624Z" fill="#FF9811"/>
<path d="M2.86555 8.27603V3.44844V2.75879H0.106934V8.96569H2.86555V8.27603Z" fill="#006DF0"/>
<path d="M9.37444 8.27586C9.68214 8.27597 9.98104 8.17319 10.2236 7.98386C10.4662 7.79454 10.6384 7.52955 10.7131 7.23104L11.4027 4.47241C11.4536 4.26902 11.4574 4.05672 11.4139 3.85164C11.3703 3.64656 11.2806 3.4541 11.1516 3.28888C11.0225 3.12366 10.8575 2.99003 10.6691 2.89815C10.4807 2.80627 10.2737 2.75855 10.0641 2.75862H8.38272V1.37931C8.38272 1.01349 8.2374 0.662661 7.97873 0.403991C7.72006 0.14532 7.36923 0 7.00341 0H6.31375V0.689655C6.31375 1.42129 6.02311 2.12295 5.50577 2.6403C4.98843 3.15764 4.28677 3.44828 3.55513 3.44828H2.86548V8.27586H9.37444Z" fill="#FFAC96"/>
<path d="M30.4517 21.3793V33.7931H9.76208V21.3793C9.76318 21.0138 9.90885 20.6636 10.1673 20.4052C10.4257 20.1468 10.7759 20.0011 11.1414 20H29.0724C29.4379 20.0011 29.7881 20.1468 30.0465 20.4052C30.305 20.6636 30.4506 21.0138 30.4517 21.3793Z" fill="#006DF0"/>
<path d="M30.4518 33.793H9.76211H8.3828H0.106934V36.5516H1.48624H38.7276H40.1069V33.793H31.8311H30.4518Z" fill="#6D6E71"/>
<path d="M31.8311 33.7932C32.3798 33.7932 32.9061 33.5752 33.2941 33.1872C33.6821 32.7992 33.9001 32.273 33.9001 31.7242C33.9001 31.1755 33.6821 30.6493 33.2941 30.2613C32.9061 29.8733 32.3798 29.6553 31.8311 29.6553H30.4518V33.7932H31.8311Z" fill="#FFBCAB"/>
<path d="M9.76212 29.6553H8.38281C7.83408 29.6553 7.30783 29.8733 6.91983 30.2613C6.53182 30.6493 6.31384 31.1755 6.31384 31.7242C6.31384 32.273 6.53182 32.7992 6.91983 33.1872C7.30783 33.5752 7.83408 33.7932 8.38281 33.7932H9.76212V29.6553Z" fill="#FFBCAB"/>
<path d="M35.0793 1.9378L34.5896 2.42746L34.1 1.9378C33.9106 1.73453 33.6821 1.57149 33.4284 1.45841C33.1746 1.34533 32.9006 1.28452 32.6228 1.27962C32.345 1.27472 32.0691 1.32582 31.8114 1.42988C31.5538 1.53394 31.3198 1.68882 31.1233 1.88528C30.9269 2.08175 30.772 2.31577 30.6679 2.5734C30.5639 2.83102 30.5128 3.10696 30.5177 3.38476C30.5226 3.66256 30.5834 3.93653 30.6964 4.19032C30.8095 4.44411 30.9726 4.67253 31.1758 4.86194L34.5896 8.27573L38.0034 4.86194C38.3689 4.46973 38.5678 3.95098 38.5584 3.41498C38.5489 2.87898 38.3318 2.36757 37.9527 1.9885C37.5737 1.60943 37.0622 1.39229 36.5262 1.38284C35.9902 1.37338 35.4715 1.57234 35.0793 1.9378Z" fill="#ED1C24"/>
<path d="M1.48621 37.2412H38.7276V39.9998H1.48621V37.2412Z" fill="#BCBEC0"/>
<path d="M1.48621 37.2412H38.7276V37.9309H1.48621V37.2412Z" fill="#A7A9AC"/>
<path d="M38.0379 19.3107C37.9417 19.3109 37.8465 19.2907 37.7586 19.2514L31.5517 16.4928C31.4297 16.4386 31.3261 16.3502 31.2533 16.2384C31.1806 16.1265 31.1418 15.9959 31.1418 15.8624C31.1418 15.729 31.1806 15.5984 31.2533 15.4865C31.3261 15.3746 31.4297 15.2862 31.5517 15.2321L37.7586 12.4735C37.8414 12.4367 37.9306 12.4166 38.0211 12.4143C38.1117 12.412 38.2018 12.4276 38.2863 12.4601C38.3709 12.4926 38.4482 12.5415 38.5138 12.6039C38.5795 12.6663 38.6322 12.741 38.6689 12.8238C38.7057 12.9066 38.7258 12.9958 38.7281 13.0863C38.7304 13.1769 38.7148 13.267 38.6823 13.3515C38.6498 13.4361 38.6009 13.5134 38.5385 13.579C38.4761 13.6447 38.4014 13.6974 38.3186 13.7341L33.5289 15.8624L38.3179 17.9907C38.4624 18.0548 38.5805 18.1667 38.6523 18.3075C38.7242 18.4483 38.7456 18.6095 38.7127 18.7641C38.6799 18.9188 38.595 19.0575 38.4722 19.157C38.3493 19.2565 38.196 19.3107 38.0379 19.3107Z" fill="#5EAC24"/>
<path d="M18.0379 14.483C18.2208 14.483 18.3962 14.4104 18.5256 14.281C18.6549 14.1517 18.7276 13.9763 18.7276 13.7934V13.1037C18.7276 12.9208 18.6549 12.7454 18.5256 12.6161C18.3962 12.4867 18.2208 12.4141 18.0379 12.4141C17.855 12.4141 17.6796 12.4867 17.5503 12.6161C17.4209 12.7454 17.3483 12.9208 17.3483 13.1037V13.7934C17.3483 13.9763 17.4209 14.1517 17.5503 14.281C17.6796 14.4104 17.855 14.483 18.0379 14.483Z" fill="#58595B"/>
<path d="M22.1759 14.483C22.3588 14.483 22.5342 14.4104 22.6635 14.281C22.7929 14.1517 22.8655 13.9763 22.8655 13.7934V13.1037C22.8655 12.9208 22.7929 12.7454 22.6635 12.6161C22.5342 12.4867 22.3588 12.4141 22.1759 12.4141C21.993 12.4141 21.8175 12.4867 21.6882 12.6161C21.5589 12.7454 21.4862 12.9208 21.4862 13.1037V13.7934C21.4862 13.9763 21.5589 14.1517 21.6882 14.281C21.8175 14.4104 21.993 14.483 22.1759 14.483Z" fill="#58595B"/>
<path d="M20.1069 29.6549C20.5528 29.6551 20.9921 29.5471 21.3871 29.3403C21.7822 29.1335 22.1212 28.834 22.3752 28.4675C22.6292 28.101 22.7905 27.6784 22.8454 27.2359C22.9003 26.7933 22.8471 26.3441 22.6903 25.9267C22.6236 25.7592 22.4939 25.6245 22.329 25.5514C22.1641 25.4784 21.9772 25.4729 21.8083 25.536C21.6393 25.5991 21.5019 25.7259 21.4253 25.8892C21.3487 26.0524 21.3392 26.2392 21.3986 26.4094C21.5024 26.6845 21.5156 26.9855 21.4362 27.2686C21.3569 27.5516 21.1892 27.8019 20.9576 27.983C20.726 28.164 20.4426 28.2664 20.1487 28.275C19.8549 28.2837 19.566 28.1982 19.3241 28.0311C19.0822 27.864 18.9001 27.624 18.8042 27.3461C18.7083 27.0682 18.7038 26.767 18.7911 26.4863C18.8785 26.2056 19.0533 25.9602 19.29 25.7858C19.5267 25.6114 19.8129 25.5173 20.1069 25.517C20.2898 25.517 20.4652 25.4443 20.5945 25.315C20.7239 25.1857 20.7965 25.0103 20.7965 24.8274C20.7965 24.6444 20.7239 24.469 20.5945 24.3397C20.4652 24.2104 20.2898 24.1377 20.1069 24.1377C19.3753 24.1377 18.6736 24.4283 18.1562 24.9457C17.6389 25.463 17.3483 26.1647 17.3483 26.8963C17.3483 27.6279 17.6389 28.3296 18.1562 28.847C18.6736 29.3643 19.3753 29.6549 20.1069 29.6549Z" fill="#004FAC"/>
<path d="M22.6628 16.7543C22.5335 16.6252 22.3583 16.5527 22.1755 16.5527C21.9928 16.5527 21.8176 16.6252 21.6883 16.7543C21.2626 17.1606 20.6968 17.3874 20.1083 17.3874C19.5198 17.3874 18.954 17.1606 18.5283 16.7543C18.3972 16.634 18.2246 16.569 18.0467 16.5729C17.8688 16.5769 17.6993 16.6494 17.5736 16.7754C17.448 16.9014 17.3759 17.0712 17.3724 17.2491C17.369 17.427 17.4345 17.5994 17.5552 17.7302C17.8907 18.0658 18.2891 18.332 18.7275 18.5136C19.1659 18.6953 19.6358 18.7887 20.1104 18.7887C20.5849 18.7887 21.0548 18.6953 21.4933 18.5136C21.9317 18.332 22.33 18.0658 22.6655 17.7302C22.7295 17.6659 22.7801 17.5897 22.8146 17.5059C22.8491 17.4221 22.8667 17.3323 22.8664 17.2417C22.8662 17.151 22.8481 17.0613 22.8131 16.9777C22.7782 16.8941 22.7271 16.8182 22.6628 16.7543Z" fill="#58595B"/>
<path d="M38.038 20.0008C38.7998 20.0008 39.4173 19.3833 39.4173 18.6215C39.4173 17.8597 38.7998 17.2422 38.038 17.2422C37.2762 17.2422 36.6587 17.8597 36.6587 18.6215C36.6587 19.3833 37.2762 20.0008 38.038 20.0008Z" fill="#7ED63E"/>
<path d="M38.038 14.4832C38.7998 14.4832 39.4173 13.8657 39.4173 13.1039C39.4173 12.3421 38.7998 11.7246 38.038 11.7246C37.2762 11.7246 36.6587 12.3421 36.6587 13.1039C36.6587 13.8657 37.2762 14.4832 38.038 14.4832Z" fill="#7ED63E"/>
<path d="M31.8311 17.242C32.5929 17.242 33.2104 16.6245 33.2104 15.8627C33.2104 15.1009 32.5929 14.4834 31.8311 14.4834C31.0693 14.4834 30.4518 15.1009 30.4518 15.8627C30.4518 16.6245 31.0693 17.242 31.8311 17.242Z" fill="#7ED63E"/>
</svg>
