<svg width="20" height="20" viewBox="0 0 20 20" fill="none" xmlns="http://www.w3.org/2000/svg">
<path d="M17.6172 14.6094C16.9969 13.9844 15.4945 13.0723 14.7656 12.7047C13.8164 12.2266 13.7383 12.1875 12.9922 12.7418C12.4945 13.1118 12.1637 13.4422 11.5812 13.318C10.9988 13.1938 9.73318 12.4934 8.62498 11.3887C7.51678 10.284 6.77576 8.98167 6.65115 8.4012C6.52654 7.82073 6.86248 7.49378 7.22889 6.99495C7.74529 6.29183 7.70623 6.17464 7.26482 5.22542C6.92068 4.48714 5.98201 2.99886 5.35467 2.38167C4.68357 1.71878 4.68357 1.83597 4.25115 2.01566C3.89911 2.16378 3.56137 2.34383 3.24217 2.55355C2.61717 2.96878 2.27029 3.3137 2.02771 3.83206C1.78514 4.35042 1.67615 5.56566 2.92889 7.84144C4.18162 10.1172 5.06053 11.2809 6.87967 13.095C8.69881 14.909 10.0976 15.8844 12.1426 17.0313C14.6722 18.4481 15.6426 18.1719 16.1625 17.9297C16.6824 17.6875 17.0289 17.3438 17.4449 16.7188C17.6552 16.4001 17.8356 16.0628 17.984 15.711C18.164 15.2801 18.2812 15.2801 17.6172 14.6094Z" stroke="url(#paint0_linear_4822_6237)" stroke-width="1.25" stroke-miterlimit="10"/>
<defs>
<linearGradient id="paint0_linear_4822_6237" x1="9.99956" y1="1.87549" x2="9.99956" y2="18.1262" gradientUnits="userSpaceOnUse">
<stop stop-color="#2DC97A"/>
<stop offset="1" stop-color="#FF9933"/>
</linearGradient>
</defs>
</svg>
