<svg width="40" height="40" viewBox="0 0 40 40" fill="none" xmlns="http://www.w3.org/2000/svg">
<path d="M17.0504 35.811L21.1291 39.2804C21.496 39.5909 21.9425 39.7449 22.3892 39.7449C22.9424 39.7449 23.4894 39.5112 23.874 39.0586C24.5247 38.2985 24.4803 37.1804 23.8119 36.4677L24.5277 37.0739C24.8944 37.3844 25.3411 37.5384 25.7876 37.5384C26.3408 37.5384 26.888 37.3047 27.2724 36.8521C27.9706 36.0328 27.8699 34.8082 27.0536 34.1102L27.4499 34.4475C27.8168 34.758 28.2633 34.9118 28.71 34.9118C29.2601 34.9118 29.8073 34.6781 30.1947 34.2256C30.8898 33.4063 30.7923 32.1789 29.9728 31.4807L29.1772 30.8034C29.5441 31.1169 29.9906 31.2679 30.4373 31.2679C30.9904 31.2679 31.5375 31.0371 31.9221 30.5846C32.6172 29.7653 32.5196 28.5348 31.7003 27.8399L27.6215 24.3702L19.8642 17.9096C19.8642 17.9096 17.183 16.9313 14.2992 18.1144L9.27153 17.4307L4.01086 26.263L17.0504 35.811Z" fill="#FFC69F"/>
<path d="M9.76143 30.6189L8.35027 31.7431C7.59352 32.3537 6.48507 32.2352 5.87448 31.4786L5.87447 31.4786C5.26388 30.7219 5.38237 29.6135 6.13911 29.0029L7.55028 27.8787C8.30703 27.2682 9.41548 27.3866 10.0261 28.1433L10.0261 28.1433C10.6367 28.9 10.5182 30.0084 9.76143 30.6189Z" fill="#F7B69A"/>
<path d="M13.4078 32.1336L10.6037 34.3998C9.84694 35.0104 8.73849 34.8919 8.12789 34.1353L8.12789 34.1353C7.5173 33.3786 7.63578 32.2702 8.39253 31.6596L11.1967 29.3934C11.9534 28.7828 13.0619 28.9013 13.6724 29.658L13.6725 29.658C14.283 30.4147 14.1646 31.523 13.4078 32.1336Z" fill="#F7B69A"/>
<path d="M15.656 34.8113L13.6281 36.4337C12.8713 37.0442 11.7629 36.9258 11.1523 36.1691L11.1523 36.1691C10.5417 35.4124 10.6602 34.304 11.4169 33.6935L13.4449 32.0711C14.2016 31.4606 15.3101 31.579 15.9206 32.3357L15.9206 32.3357C16.5312 33.0924 16.4128 34.2008 15.656 34.8113Z" fill="#F7B69A"/>
<path d="M18.1734 37.3113L16.7623 38.4355C16.0055 39.0461 14.8971 38.9276 14.2865 38.1709L14.2865 38.1709C13.6759 37.4143 13.7944 36.3059 14.5511 35.6953L15.9623 34.5711C16.719 33.9606 17.8275 34.079 18.4381 34.8357L18.4381 34.8357C19.0487 35.5924 18.9302 36.7008 18.1734 37.3113Z" fill="#F7B69A"/>
<path d="M37.1716 24.1147L31.7002 27.8402L23.1854 20.6705L21.6141 21.4573C20.9161 21.7974 20.1677 21.9601 19.4313 21.9601C18.5551 21.9601 17.6899 21.7296 16.9272 21.2903C16.1282 20.8301 16.1575 19.6634 16.97 19.2274L20.8068 17.1687C21.2774 16.9162 21.8274 16.8553 22.3419 16.9988L27.8491 17.6018L31.3008 15.5684L37.1716 24.1147Z" fill="#F7B69A"/>
<path d="M34.0229 13.7144L39.7756 22.1106C40.1755 22.6944 40.0265 23.4918 39.4428 23.8917L36.8596 25.6616C36.2759 26.0616 35.4785 25.9126 35.0785 25.3288L29.3258 16.9326C28.9259 16.3489 29.0749 15.5515 29.6586 15.1515L32.2418 13.3816C32.8255 12.9817 33.623 13.1307 34.0229 13.7144Z" fill="#342C37"/>
<path d="M5.97707 14.8726L0.224406 23.2688C-0.175539 23.8526 -0.0265509 24.65 0.557182 25.0499L3.14035 26.8198C3.72409 27.2198 4.52153 27.0708 4.92148 26.4871L10.6741 18.0908C11.0741 17.5071 10.9251 16.7097 10.3414 16.3097L7.75819 14.5398C7.17445 14.1399 6.37702 14.2889 5.97707 14.8726Z" fill="#8CC2FE"/>
<path d="M16.9384 6.0796V12.926C16.9384 13.4575 17.3732 13.8923 17.9047 13.8923H23.9973L26.3165 15.8346C26.4711 15.9651 26.7127 15.8539 26.7127 15.6511V13.8923H27.3263C27.8577 13.8923 28.2926 13.4575 28.2926 12.926V6.0796C28.2926 5.54808 27.8577 5.11328 27.3263 5.11328H17.9047C17.3732 5.11328 16.9384 5.54808 16.9384 6.0796Z" fill="#F14F4A"/>
<path d="M20.5617 0.966322V7.81268C20.5617 8.3442 20.1269 8.779 19.5954 8.779H13.5028L11.1836 10.7213C11.0289 10.8518 10.7873 10.7407 10.7873 10.5378V8.779H10.1737C9.64231 8.779 9.2074 8.3442 9.2074 7.81268V0.966322C9.2074 0.434798 9.64231 0 10.1737 0H19.5954C20.1269 0 20.5617 0.434798 20.5617 0.966322Z" fill="#FFC90D"/>
<path d="M16.5258 5.31985C16.5258 5.9288 16.1002 6.45121 15.4915 6.60746V6.95232C15.4915 7.16249 15.3191 7.33479 15.1089 7.33479C14.8989 7.33479 14.7264 7.16249 14.7264 6.95232V6.60746C14.1124 6.44595 13.6921 5.92328 13.6921 5.31985C13.6921 5.10968 13.8646 4.93739 14.0746 4.93739C14.2848 4.93739 14.4571 5.10968 14.4571 5.31985C14.4571 5.63788 14.748 5.89645 15.1089 5.89645C15.4699 5.89645 15.7609 5.63788 15.7609 5.31985C15.7609 5.00209 15.4699 4.74878 15.1089 4.74878C14.3279 4.74878 13.6921 4.14562 13.6921 3.40751C13.6921 2.80408 14.1124 2.28141 14.7264 2.1199V1.77531C14.7264 1.56514 14.8989 1.39258 15.1089 1.39258C15.3191 1.39258 15.4915 1.56514 15.4915 1.77531V2.1199C16.1002 2.28141 16.5258 2.80408 16.5258 3.40751C16.5258 3.62294 16.3534 3.78998 16.1433 3.78998C15.9333 3.78998 15.7609 3.62294 15.7609 3.40751C15.7609 3.09501 15.4699 2.83644 15.1089 2.83644C14.748 2.83644 14.4571 3.09501 14.4571 3.40751C14.4571 3.72527 14.748 3.98384 15.1089 3.98384C15.8902 3.98384 16.5258 4.58201 16.5258 5.31985Z" fill="#FFAB02"/>
<path d="M20.9175 9.53777C20.9175 9.94142 20.589 10.2643 20.1911 10.2643C19.7876 10.2643 19.4647 9.94142 19.4647 9.53777C19.4647 9.14002 19.7876 8.81152 20.1911 8.81152C20.589 8.81152 20.9175 9.14002 20.9175 9.53777Z" fill="white"/>
<path d="M23.3419 9.53777C23.3419 9.94142 23.0134 10.2643 22.6155 10.2643C22.212 10.2643 21.8892 9.94142 21.8892 9.53777C21.8892 9.14002 22.212 8.81152 22.6155 8.81152C23.0134 8.81152 23.3419 9.14002 23.3419 9.53777Z" fill="white"/>
<path d="M25.7662 9.53777C25.7662 9.94142 25.4377 10.2643 25.0399 10.2643C24.6363 10.2643 24.3135 9.94142 24.3135 9.53777C24.3135 9.14002 24.6363 8.81152 25.0399 8.81152C25.4377 8.81152 25.7662 9.14002 25.7662 9.53777Z" fill="white"/>
</svg>
