<svg width="20" height="20" viewBox="0 0 20 20" fill="none" xmlns="http://www.w3.org/2000/svg">
<path d="M13.7859 2.5C11.9074 2.5 10.6609 3.65391 9.99994 4.49219C9.34057 3.65273 8.09252 2.5 6.21401 2.5C3.84604 2.5 1.89955 4.47422 1.87495 6.90039C1.85385 9.01797 2.60268 10.9734 4.1644 12.877C4.8976 13.7707 6.2269 15.1996 9.29682 17.2836C9.50385 17.4255 9.74896 17.5014 9.99994 17.5014C10.2509 17.5014 10.496 17.4255 10.7031 17.2836C13.773 15.1996 15.1023 13.7707 15.8355 12.877C17.398 10.973 18.146 9.01758 18.1249 6.90039C18.1003 4.47422 16.1539 2.5 13.7859 2.5ZM9.99994 16.25V8.10859C9.99994 7.3418 10.2042 6.59453 10.555 5.9125C10.5559 5.91034 10.557 5.90825 10.5581 5.90625C10.7857 5.49546 11.0722 5.12025 11.4085 4.79258C12.1167 4.10156 12.9164 3.75 13.7859 3.75C15.4714 3.75 16.857 5.16875 16.8746 6.91406C16.914 11.0004 13.423 13.9262 9.99994 16.25Z" fill="url(#paint0_linear_4822_6273)"/>
<defs>
<linearGradient id="paint0_linear_4822_6273" x1="9.99994" y1="2.5" x2="9.99994" y2="17.5014" gradientUnits="userSpaceOnUse">
<stop stop-color="#2DC97A"/>
<stop offset="1" stop-color="#FF9933"/>
</linearGradient>
</defs>
</svg>
