<svg width="40" height="30" viewBox="0 0 40 30" fill="none" xmlns="http://www.w3.org/2000/svg">
<path d="M23.8709 14.5195C23.8709 15.3099 23.634 16.0451 23.2273 16.6577C22.534 17.702 21.3473 17.9179 20 17.9179C17.8621 17.9179 16.7057 16.6573 16.7057 14.5195C16.7057 13.1706 16.8189 11.9829 17.865 11.2899C18.4769 10.8845 19.2108 10.6484 19.9999 10.6484C22.1379 10.6485 23.8709 12.3816 23.8709 14.5195Z" fill="#E5646E"/>
<path d="M21.0886 17.3018C18.9507 17.3018 17.2177 15.5687 17.2177 13.4308C17.2177 12.6404 17.4583 11.9027 17.865 11.29C16.8207 11.9833 16.129 13.1721 16.129 14.5196C16.129 16.6575 17.8621 18.3905 20 18.3905C21.3474 18.3905 22.5339 17.7021 23.2272 16.6579C22.6147 17.0645 21.8791 17.3018 21.0886 17.3018Z" fill="#DB4655"/>
<path d="M6.77039 0C7.10055 0 7.4307 0.126016 7.68266 0.378047C7.69445 0.389844 7.70594 0.401797 7.71719 0.413907L7.00516 2.20266C3.71516 5.49273 1.90313 9.86711 1.90313 14.5199C1.90313 19.1727 3.71516 23.5471 7.00516 26.8372L7.71758 28.6255C7.70617 28.6377 7.69453 28.6498 7.68266 28.6618C7.17922 29.1659 6.36211 29.1659 5.85805 28.6618C2.08039 24.8844 0 19.862 0 14.5199C0 9.17781 2.08039 4.15547 5.85813 0.378047C6.10984 0.126016 6.44023 0 6.77039 0Z" fill="#FFE6E7"/>
<path d="M14.0695 7.29883C14.3996 7.29883 14.7301 7.42484 14.9817 7.67688C15.0073 7.7025 15.0316 7.72883 15.0546 7.75602L14.1797 9.50141C11.4129 12.2685 11.4129 16.7708 14.1797 19.538L15.0563 21.2815C15.0328 21.3093 15.008 21.3363 14.9817 21.3626C14.4783 21.8666 13.6605 21.8666 13.1571 21.3626C9.38383 17.5896 9.38383 11.4498 13.1571 7.67688C13.4088 7.42477 13.7393 7.29883 14.0695 7.29883Z" fill="#FF9A9F"/>
<path d="M10.4196 3.64941C10.7498 3.64941 11.0799 3.77543 11.3319 4.02746C11.3465 4.04215 11.3608 4.05699 11.3746 4.07223L10.2734 5.85199C5.49459 10.6314 5.49459 18.4081 10.2734 23.1875L11.3755 24.9664C11.3615 24.9819 11.3469 24.9971 11.3319 25.0121C10.8279 25.5161 10.0114 25.5161 9.50733 25.0121C3.72233 19.2268 3.72233 9.8127 9.50733 4.0273C9.75928 3.77543 10.0894 3.64941 10.4196 3.64941Z" fill="#FFCCCF"/>
<path d="M11.6129 14.5196C11.6129 17.2977 12.9759 19.7551 15.0564 21.2814C15.4853 20.7746 15.4599 20.0157 14.9817 19.5379C12.2149 16.7708 12.2149 12.2685 14.9817 9.50133C15.4599 9.02352 15.4835 8.26266 15.0546 7.75586C12.9742 9.28211 11.6129 11.7416 11.6129 14.5196Z" fill="#FF8086"/>
<path d="M6.45166 14.5198C6.45166 18.7234 8.37103 22.4814 11.3756 24.9665C11.8359 24.4602 11.8211 23.6765 11.332 23.1877C6.55314 18.4082 6.55314 10.6316 11.332 5.85211C11.8211 5.36328 11.8349 4.57852 11.3747 4.07227C8.3701 6.55727 6.45166 10.3162 6.45166 14.5198Z" fill="#FF9A9F"/>
<path d="M1.29028 14.5201C1.29028 20.1493 3.78364 25.1957 7.71763 28.6257C8.18669 28.1198 8.17489 27.3293 7.6827 26.8374C4.39263 23.5473 2.5806 19.1729 2.5806 14.5201C2.5806 9.86727 4.39263 5.49289 7.6827 2.20281C8.17489 1.71094 8.1863 0.92 7.71724 0.414062C3.78325 3.84398 1.29028 8.89086 1.29028 14.5201Z" fill="#FFCCCF"/>
<path d="M33.2297 29.0398C32.8995 29.0398 32.5693 28.9138 32.3174 28.6618C32.3056 28.65 32.2941 28.638 32.2829 28.6259L32.9949 26.8372C36.2849 23.5471 38.0969 19.1727 38.0969 14.5199C38.0969 9.86711 36.2849 5.49273 32.9949 2.20266L32.2825 0.414375C32.2939 0.402109 32.3055 0.39 32.3174 0.378047C32.8208 -0.126016 33.6379 -0.126016 34.142 0.378047C37.9197 4.15547 40 9.17781 40 14.5199C40 19.862 37.9197 24.8844 34.1419 28.6618C33.8902 28.9138 33.5598 29.0398 33.2297 29.0398Z" fill="#FFE6E7"/>
<path d="M25.9306 21.7407C25.6004 21.7407 25.27 21.6147 25.0183 21.3627C24.9927 21.337 24.9684 21.3107 24.9454 21.2835L25.8204 19.538C28.5872 16.7709 28.5872 12.2687 25.8204 9.50148L24.9437 7.75797C24.9672 7.73016 24.9921 7.70313 25.0183 7.67688C25.5218 7.17281 26.3395 7.17281 26.8429 7.67688C30.6162 11.4498 30.6162 17.5896 26.8429 21.3626C26.5912 21.6148 26.2608 21.7407 25.9306 21.7407Z" fill="#FF9A9F"/>
<path d="M29.5804 25.3902C29.2503 25.3902 28.9201 25.2642 28.6682 25.0121C28.6535 24.9975 28.6393 24.9826 28.6254 24.9674L29.7266 23.1875C34.5054 18.4081 34.5054 10.6314 29.7266 5.85199L28.6245 4.07316C28.6386 4.05762 28.6531 4.04238 28.6681 4.02746C29.1722 3.5234 29.9887 3.5234 30.4927 4.02746C36.2777 9.81277 36.2777 19.2268 30.4927 25.0122C30.2408 25.2642 29.9106 25.3902 29.5804 25.3902Z" fill="#FFCCCF"/>
<path d="M28.3871 14.5196C28.3871 11.7416 27.0241 9.28406 24.9436 7.75781C24.5147 8.26461 24.5401 9.02352 25.0182 9.50133C27.785 12.2684 27.785 16.7707 25.0182 19.5379C24.5401 20.0157 24.5164 20.7766 24.9454 21.2834C27.0257 19.7571 28.3871 17.2977 28.3871 14.5196Z" fill="#FF8086"/>
<path d="M33.5484 14.5199C33.5484 10.3163 31.629 6.55832 28.6245 4.07324C28.1642 4.57949 28.179 5.36324 28.6681 5.85207C33.4469 10.6315 33.4469 18.4082 28.6681 23.1876C28.179 23.6764 28.1651 24.4612 28.6254 24.9675C31.63 22.4825 33.5484 18.7235 33.5484 14.5199Z" fill="#FF9A9F"/>
<path d="M38.7097 14.5197C38.7097 8.89047 36.2163 3.84406 32.2823 0.414062C31.8132 0.92 31.825 1.71047 32.3172 2.20234C35.6073 5.49242 37.4193 9.8668 37.4193 14.5196C37.4193 19.1724 35.6072 23.5468 32.3172 26.8369C31.825 27.3287 31.8136 28.1197 32.2827 28.6256C36.2167 25.1958 38.7097 20.1489 38.7097 14.5197Z" fill="#FFCCCF"/>
</svg>
