<svg width="326" height="243" viewBox="0 0 326 243" fill="none" xmlns="http://www.w3.org/2000/svg">
<path d="M326 213.497H0V213.66H326V213.497Z" fill="#E6E6E6"/>
<path d="M81.3826 223.364H59.7883V223.527H81.3826V223.364Z" fill="#E6E6E6"/>
<path d="M52.9554 223.364H40.4435V223.527H52.9554V223.364Z" fill="#E6E6E6"/>
<path d="M137.279 225.763H124.767V225.926H137.279V225.763Z" fill="#E6E6E6"/>
<path d="M202.518 229.401H174.358V229.564H202.518V229.401Z" fill="#E6E6E6"/>
<path d="M168.555 229.401H164.428V229.564H168.555V229.401Z" fill="#E6E6E6"/>
<path d="M295.584 225.763H234.505V225.926H295.584V225.763Z" fill="#E6E6E6"/>
<path d="M154.524 184.418H28.6292C27.643 184.416 26.6977 184.023 26.001 183.325C25.3042 182.627 24.9128 181.682 24.9128 180.695V3.72292C24.9128 2.73667 25.3042 1.79072 26.001 1.09272C26.6977 0.394725 27.643 0.00172723 28.6292 0L154.524 0C155.511 0 156.458 0.392235 157.156 1.09042C157.855 1.7886 158.247 2.73554 158.247 3.72292V180.695C158.247 181.184 158.151 181.668 157.963 182.12C157.776 182.572 157.502 182.982 157.156 183.328C156.811 183.673 156.4 183.948 155.949 184.135C155.497 184.322 155.013 184.418 154.524 184.418ZM28.6292 0.163C27.6862 0.164727 26.7824 0.540551 26.1162 1.20798C25.45 1.87541 25.0758 2.7799 25.0758 3.72292V180.695C25.0758 181.638 25.45 182.543 26.1162 183.21C26.7824 183.878 27.6862 184.253 28.6292 184.255H154.524C155.468 184.253 156.372 183.878 157.039 183.211C157.707 182.543 158.082 181.639 158.084 180.695V3.72292C158.082 2.7793 157.707 1.87482 157.039 1.20758C156.372 0.540339 155.468 0.164724 154.524 0.163H28.6292Z" fill="#E6E6E6"/>
<path d="M295.558 184.418H169.657C168.67 184.416 167.724 184.024 167.026 183.326C166.328 182.628 165.936 181.682 165.934 180.695V3.72292C165.936 2.73607 166.328 1.79013 167.026 1.09232C167.724 0.394512 168.67 0.00172376 169.657 0L295.558 0C296.543 0.00345052 297.487 0.397208 298.182 1.09502C298.877 1.79283 299.268 2.7378 299.268 3.72292V180.695C299.268 181.68 298.877 182.625 298.182 183.323C297.487 184.021 296.543 184.415 295.558 184.418ZM169.657 0.163C168.713 0.164724 167.809 0.540339 167.141 1.20758C166.474 1.87482 166.099 2.7793 166.097 3.72292V180.695C166.099 181.639 166.474 182.543 167.141 183.211C167.809 183.878 168.713 184.253 169.657 184.255H295.558C296.502 184.253 297.406 183.878 298.073 183.211C298.741 182.543 299.116 181.639 299.118 180.695V3.72292C299.116 2.7793 298.741 1.87482 298.073 1.20758C297.406 0.540339 296.502 0.164724 295.558 0.163H169.657Z" fill="#E6E6E6"/>
<path d="M174.345 157.796H160.007V214.67H174.345V157.796Z" fill="#E0E0E0"/>
<path d="M171.619 214.674H174.345V206.928H168.764L171.619 214.674Z" fill="#FAFAFA"/>
<path d="M111.518 157.796H97.1807V214.67H111.518V157.796Z" fill="#E0E0E0"/>
<path d="M174.345 157.796H109.145V209.917H174.345V157.796Z" fill="#FAFAFA"/>
<path d="M171.978 160.392V174.188H111.492V160.392H171.959H171.978ZM172.213 160.144H111.257V174.436H172.232V160.111L172.213 160.144Z" fill="#E0E0E0"/>
<path d="M111.864 214.674H109.145V206.928H114.72L111.864 214.674Z" fill="#FAFAFA"/>
<path d="M140.304 167.255C140.304 167.54 140.388 167.819 140.547 168.055C140.705 168.292 140.93 168.477 141.193 168.586C141.457 168.695 141.746 168.724 142.026 168.668C142.305 168.613 142.562 168.475 142.764 168.274C142.965 168.072 143.103 167.816 143.158 167.536C143.214 167.257 143.185 166.967 143.076 166.704C142.967 166.44 142.782 166.215 142.545 166.057C142.308 165.899 142.03 165.814 141.745 165.814C141.363 165.814 140.996 165.966 140.726 166.236C140.456 166.506 140.304 166.873 140.304 167.255Z" fill="#E6E6E6"/>
<path d="M171.978 176.966V190.756H111.492V176.966H171.959H171.978ZM172.213 176.718H111.257V191.036H172.232V176.692L172.213 176.718Z" fill="#E0E0E0"/>
<path d="M140.304 183.862C140.304 184.147 140.388 184.426 140.547 184.663C140.705 184.9 140.93 185.084 141.193 185.193C141.457 185.303 141.746 185.331 142.026 185.275C142.305 185.22 142.562 185.083 142.764 184.881C142.965 184.68 143.103 184.423 143.158 184.143C143.214 183.864 143.185 183.574 143.076 183.311C142.967 183.048 142.782 182.822 142.545 182.664C142.308 182.506 142.03 182.421 141.745 182.421C141.363 182.421 140.996 182.573 140.726 182.843C140.456 183.114 140.304 183.48 140.304 183.862Z" fill="#E6E6E6"/>
<path d="M171.978 193.572V207.336H111.492V193.572H171.959H171.978ZM172.213 193.318H111.257V207.616H172.232V193.318H172.213Z" fill="#E0E0E0"/>
<path d="M140.304 200.465C140.304 200.75 140.388 201.029 140.547 201.266C140.705 201.503 140.93 201.688 141.193 201.797C141.457 201.906 141.746 201.934 142.026 201.879C142.305 201.823 142.562 201.686 142.764 201.484C142.965 201.283 143.103 201.026 143.158 200.746C143.214 200.467 143.185 200.177 143.076 199.914C142.967 199.651 142.782 199.426 142.545 199.267C142.308 199.109 142.03 199.024 141.745 199.024C141.363 199.024 140.996 199.176 140.726 199.446C140.456 199.717 140.304 200.083 140.304 200.465Z" fill="#E6E6E6"/>
<path d="M102.762 124.766H88.4243V214.677H102.762V124.766Z" fill="#E0E0E0"/>
<path d="M100.036 214.674H102.762V206.928H97.187L100.036 214.674Z" fill="#FAFAFA"/>
<path d="M49.1803 124.766H34.8428V214.677H49.1803V124.766Z" fill="#E0E0E0"/>
<path d="M102.762 124.766H46.8005V209.923H102.762V124.766Z" fill="#FAFAFA"/>
<path d="M100.349 127.177V146.457H49.2129V127.177H100.349ZM100.649 126.884H48.8999V146.757H100.636V126.884H100.649Z" fill="#E0E0E0"/>
<path d="M100.349 148.808V199.945H75.9907V148.808H100.349ZM100.649 148.508H75.6973V200.245H100.649V148.508Z" fill="#E0E0E0"/>
<path d="M73.5716 148.808V199.945H49.2129V148.808H73.5716ZM73.865 148.508H48.8999V200.245H73.8519V148.508H73.865Z" fill="#E0E0E0"/>
<path d="M49.5259 214.674H46.8005V206.928H52.3817L49.5259 214.674Z" fill="#FAFAFA"/>
<path d="M73.3369 136.821C73.3356 137.108 73.4194 137.388 73.5777 137.627C73.7359 137.866 73.9616 138.053 74.2259 138.163C74.4903 138.274 74.7815 138.303 75.0627 138.248C75.3439 138.193 75.6025 138.056 75.8055 137.853C76.0086 137.651 76.1471 137.393 76.2035 137.112C76.2599 136.832 76.2316 136.54 76.1222 136.275C76.0129 136.01 75.8274 135.784 75.5892 135.625C75.351 135.465 75.0709 135.38 74.7844 135.38C74.4016 135.38 74.0344 135.532 73.7632 135.802C73.4919 136.072 73.3387 136.438 73.3369 136.821Z" fill="#E6E6E6"/>
<path d="M78.5007 173.152C78.4995 173.438 78.5834 173.719 78.742 173.958C78.9005 174.197 79.1265 174.384 79.3913 174.494C79.656 174.604 79.9476 174.634 80.229 174.578C80.5103 174.522 80.7688 174.384 80.9717 174.182C81.1745 173.979 81.3125 173.72 81.3681 173.439C81.4238 173.157 81.3945 172.866 81.2842 172.601C81.1738 172.336 80.9873 172.11 80.7483 171.952C80.5092 171.793 80.2285 171.709 79.9417 171.711C79.5595 171.711 79.193 171.862 78.9228 172.133C78.6526 172.403 78.5007 172.769 78.5007 173.152Z" fill="#E6E6E6"/>
<path d="M68.1797 173.152C68.1797 173.436 68.2642 173.715 68.4225 173.952C68.5809 174.189 68.8059 174.374 69.0692 174.483C69.3325 174.592 69.6222 174.62 69.9017 174.565C70.1812 174.509 70.438 174.372 70.6395 174.17C70.841 173.969 70.9782 173.712 71.0338 173.433C71.0894 173.153 71.0609 172.863 70.9518 172.6C70.8428 172.337 70.6581 172.112 70.4211 171.953C70.1842 171.795 69.9056 171.711 69.6206 171.711C69.2385 171.711 68.8719 171.862 68.6017 172.133C68.3315 172.403 68.1797 172.769 68.1797 173.152Z" fill="#E6E6E6"/>
<path d="M66.5496 99.7012H60.5055C61.0625 102.633 61.4133 105.6 61.5553 108.581C61.5553 111.841 56.9521 124.764 63.5113 124.764C70.0704 124.764 65.4673 111.867 65.4673 108.581C65.62 105.6 65.9817 102.632 66.5496 99.7012Z" fill="#E0E0E0"/>
<path d="M43.5537 112.926V116.838C43.5606 118.935 44.3967 120.944 45.8796 122.427C47.3625 123.91 49.3718 124.746 51.469 124.753H55.381C57.4787 124.748 59.4889 123.912 60.9722 122.429C62.4555 120.945 63.2911 118.935 63.2963 116.838V112.926H43.5537Z" fill="#F5F5F5"/>
<path d="M127.577 149.51C127.577 154.074 132.682 157.797 138.922 157.797H144.555C150.795 157.797 155.9 154.067 155.9 149.51H127.577Z" fill="#E0E0E0"/>
<path d="M276.846 142.839C273.429 145.623 268.709 150.735 264.392 157.914C261.511 162.699 259.776 167.694 259.013 174.338C259.013 166.84 259.059 158.787 259.085 151.185C259.952 149.229 261.934 144.717 263.356 141.157C268.096 129.265 269.876 126.344 274.133 116.094C279.825 102.402 285.654 86.1937 283.985 87.4846C280.582 90.1318 267.542 114.549 266.133 118.044C262.294 127.37 259.921 137.234 259.098 147.286C259.098 140.114 259.15 133.594 259.176 128.528C259.268 112.032 259.548 106.706 259.685 105.056C260.213 104.221 260.832 103.25 261.198 102.722C264.262 98.2948 265.442 94.5197 268.324 87.915C272.419 78.5522 275.939 61.9328 274.909 62.7738C270.619 66.262 267.242 73.7666 262.795 83.3314C258.348 92.8962 259.62 98.3861 258.74 106.556C258.557 108.16 258.414 114.204 258.309 122.588C257.162 113.656 254.997 107.775 251.052 102.428C246.202 95.8498 241.507 91.4032 238.065 89.0886C234.622 86.774 244.011 102.924 248.497 109.953C252.493 116.231 256.177 121.773 258.277 127.231C258.166 138.588 258.114 152.972 258.114 166.351C257.084 160.254 255.401 153.695 253.158 148.616C250.459 142.513 246.312 133.151 243.007 129.969C242.218 129.206 246.462 147.416 249.188 152.261C251.913 157.105 253.915 161.669 255.63 164.414C256.027 165.066 257.357 167.524 258.114 168.978C258.114 185.324 258.205 199.746 258.348 204.656H259.053C259.007 203.384 258.994 195.071 259.013 184.065C260.715 178.093 264.601 171.273 267.809 165.053C271.304 158.266 280.262 140.049 276.846 142.839Z" fill="#E0E0E0"/>
<path d="M268.911 214.678H248.477L246.932 194.648H270.456L268.911 214.678Z" fill="#F0F0F0"/>
<path d="M271.975 196.981H245.406L244.65 190.22H272.738L271.975 196.981Z" fill="#F5F5F5"/>
<path d="M81.0175 13.396H44.4729V53.5266H81.0175V13.396Z" fill="#E0E0E0"/>
<path d="M84.975 13.396H47.2242V53.5266H84.975V13.396Z" fill="#F5F5F5"/>
<path d="M81.813 50.3699V16.5637L50.3866 16.5637V50.3699H81.813Z" fill="white"/>
<path d="M74.1975 42.1632V24.7483H58.0084V42.1632H74.1975Z" fill="#F5F5F5"/>
<path d="M267.352 18.0745H233.403V55.3559H267.352V18.0745Z" fill="#E0E0E0"/>
<path d="M271.03 18.0745H235.965V55.3559H271.03V18.0745Z" fill="#F5F5F5"/>
<path d="M268.096 52.4141V21.0138L238.906 21.0138V52.4141H268.096Z" fill="white"/>
<path d="M253.498 45.8214C258.528 45.8214 262.606 41.7434 262.606 36.713C262.606 31.6825 258.528 27.6045 253.498 27.6045C248.467 27.6045 244.389 31.6825 244.389 36.713C244.389 41.7434 248.467 45.8214 253.498 45.8214Z" fill="#F5F5F5"/>
<path d="M118.984 37.3179H91.8735V67.0882H118.984V37.3179Z" fill="#E0E0E0"/>
<path d="M121.917 37.3179H93.9141V67.0882H121.917V37.3179Z" fill="#F5F5F5"/>
<path d="M119.57 64.74V39.6641H96.2613V64.74H119.57Z" fill="white"/>
<path d="M107.919 45.868L101.542 56.9129H114.296L107.919 45.868Z" fill="#F5F5F5"/>
<path d="M163 242.941C232.818 242.941 289.416 239.637 289.416 235.561C289.416 231.484 232.818 228.18 163 228.18C93.1821 228.18 36.5836 231.484 36.5836 235.561C36.5836 239.637 93.1821 242.941 163 242.941Z" fill="#F5F5F5"/>
<path d="M227.711 70.7333L221.243 68.1253C221.243 68.1253 212.709 83.6885 210.264 84.4709C206.938 85.5402 200.053 88.5133 195.972 89.0741C195.418 89.7261 194.511 91.7473 194.596 92.4905C200.079 94.3161 212.128 91.8907 214.71 89.9738C220.585 85.5924 227.711 70.7333 227.711 70.7333Z" fill="#E58A7B"/>
<path d="M229.7 67.2033C230.906 71.663 224.373 80.6214 224.373 80.6214L215.812 75.8097C215.812 75.8097 217.416 72.1259 219.372 68.3769C222.508 62.3198 228.324 62.1177 229.7 67.2033Z" fill="#407BFF"/>
<path opacity="0.2" d="M229.7 67.2033C230.906 71.663 224.373 80.6214 224.373 80.6214L215.812 75.8097C215.812 75.8097 217.416 72.1259 219.372 68.3769C222.508 62.3198 228.324 62.1177 229.7 67.2033Z" fill="black"/>
<path opacity="0.2" d="M219.209 77.7237L222.58 79.608L223.173 69.2673C221.211 70.7734 219.829 75.3113 219.209 77.7237Z" fill="black"/>
<path d="M224.066 63.8433C224.066 63.8433 217.403 78.6697 221.289 106.282H247.545C247.962 102.253 246.58 82.5883 251.581 63.5955C248.7 63.0365 245.786 62.6663 242.857 62.4871C239.142 62.2718 235.417 62.2718 231.701 62.4871C229.126 62.7465 226.574 63.1998 224.066 63.8433Z" fill="#407BFF"/>
<path opacity="0.2" d="M224.066 63.8433C224.066 63.8433 217.403 78.6697 221.289 106.282H247.545C247.962 102.253 246.58 82.5883 251.581 63.5955C248.7 63.0365 245.786 62.6663 242.857 62.4871C239.142 62.2718 235.417 62.2718 231.701 62.4871C229.126 62.7465 226.574 63.1998 224.066 63.8433Z" fill="black"/>
<g style="mix-blend-mode:multiply">
<path d="M217.977 236.155C217.938 236.853 227.894 237.42 240.21 237.42C252.526 237.42 262.554 236.853 262.593 236.155C262.632 235.458 252.683 234.884 240.36 234.884C228.037 234.884 218.023 235.458 217.977 236.155Z" fill="#E8ECF1"/>
</g>
<path d="M235.489 217.766L230.832 219.568L234.843 229.931L239.5 228.128L235.489 217.766Z" fill="#E58A7B"/>
<path d="M256.269 231.139H251.359L249.56 219.774H254.469L256.269 231.139Z" fill="#E58A7B"/>
<path d="M251.02 230.574H256.536C256.631 230.572 256.724 230.605 256.797 230.666C256.87 230.727 256.918 230.812 256.934 230.906L257.645 235.275C257.66 235.384 257.651 235.495 257.619 235.601C257.587 235.707 257.533 235.805 257.46 235.887C257.387 235.97 257.297 236.037 257.196 236.082C257.095 236.127 256.986 236.149 256.875 236.148C254.952 236.109 254.026 235.998 251.601 235.998C250.107 235.998 247.036 236.155 244.963 236.155C242.89 236.155 242.753 234.114 243.607 233.932C247.441 233.104 248.927 231.976 250.205 230.874C250.433 230.68 250.722 230.574 251.02 230.574Z" fill="#263238"/>
<path d="M234.72 228.857L239.936 227.337C240.028 227.308 240.128 227.312 240.218 227.349C240.307 227.386 240.381 227.454 240.425 227.54L242.381 231.452C242.427 231.551 242.45 231.659 242.449 231.768C242.449 231.877 242.424 231.985 242.378 232.084C242.331 232.182 242.263 232.27 242.18 232.34C242.096 232.409 241.998 232.46 241.892 232.488C239.995 233.003 238.723 233.329 236.35 234.02C234.714 234.496 233.045 235.272 231.428 235.787C230.306 236.146 227.672 236.159 226.309 236.159C224.295 236.159 223.845 234.034 224.712 233.936C226.896 233.688 227.19 233.805 228.396 233.199C230.368 232.334 232.156 231.099 233.664 229.561C233.95 229.24 234.314 228.997 234.72 228.857Z" fill="#263238"/>
<path d="M196.793 89.0132L191.395 86.7182L189.172 92.7036C191.384 93.0406 193.635 93.0406 195.848 92.7036L196.793 89.0132Z" fill="#E58A7B"/>
<path d="M187.379 86.595L187.235 90.5722L189.172 92.7238L191.395 86.7385L187.379 86.595Z" fill="#E58A7B"/>
<path d="M236.141 218.538L231.47 220.341L233.539 225.7L238.21 223.896L236.141 218.538Z" fill="#CF6F64"/>
<path d="M254.469 219.774H249.56L250.492 225.636H255.402L254.469 219.774Z" fill="#CF6F64"/>
<path opacity="0.2" d="M220.454 98.8009C220.552 99.981 220.663 101.187 220.806 102.426L240.327 96.0886C243.381 95.1817 246.032 93.2556 247.838 90.6313C247.917 88.8905 248.014 87.0584 248.164 85.148C248.23 84.2157 248.308 83.2637 248.393 82.2988C248.477 81.3338 248.595 80.2711 248.719 79.2409L220.454 98.8009Z" fill="black"/>
<path d="M226.831 77.4234L226.179 77.3386C226.564 74.0786 228.996 71.5163 231.558 71.575V72.227C229.315 72.1813 227.177 74.5024 226.831 77.4234Z" fill="white"/>
<path d="M230.306 83.4597H230.195V82.8077C232.438 82.8924 234.544 80.5518 234.89 77.6373L235.542 77.7156C235.196 80.8843 232.842 83.4597 230.306 83.4597Z" fill="white"/>
<path d="M242.492 49.9096C241.573 53.5021 240.49 60.0808 242.857 62.4802C242.857 62.4802 241.201 66.1248 234.531 66.1248C228.435 66.1248 231.701 62.4802 231.701 62.4802C235.757 61.5217 235.829 58.5682 235.294 55.7646L242.492 49.9096Z" fill="#E58A7B"/>
<path d="M239.558 52.3043L235.301 55.7599C235.432 56.4042 235.508 57.0586 235.529 57.7159C236.774 58.9547 239.271 55.8185 239.525 54.2146C239.654 53.5853 239.665 52.9376 239.558 52.3043Z" fill="#CF6F64"/>
<path d="M227.979 49.8715C228.274 50.3851 228.673 50.8316 229.15 51.1829C229.627 51.5342 230.172 51.7826 230.75 51.9123C232.314 52.2644 233.097 50.8235 232.667 49.376C232.282 48.072 230.997 46.3181 229.407 46.6181C229.066 46.6883 228.747 46.8391 228.476 47.0579C228.206 47.2767 227.992 47.5572 227.852 47.8758C227.712 48.1944 227.651 48.5419 227.673 48.8891C227.695 49.2363 227.8 49.5732 227.979 49.8715Z" fill="#CF6F64"/>
<path d="M230.567 38.3755C228.129 39.4904 227.268 49.1791 230.332 50.6135C233.397 52.0479 235.183 36.2565 230.567 38.3755Z" fill="#263238"/>
<path d="M243.235 44.509C242.649 49.3664 242.583 52.2287 239.975 54.7258C239.167 55.5523 238.146 56.1394 237.026 56.4223C235.905 56.7052 234.728 56.6728 233.624 56.3288C232.52 55.9848 231.533 55.3425 230.772 54.4728C230.01 53.6031 229.504 52.5399 229.309 51.4006C228.52 47.0322 229.609 39.8146 234.486 37.8781C235.51 37.4262 236.637 37.2565 237.75 37.3867C238.862 37.5169 239.919 37.9423 240.812 38.6187C241.704 39.2952 242.4 40.198 242.826 41.2337C243.252 42.2694 243.393 43.4002 243.235 44.509Z" fill="#E58A7B"/>
<path d="M235.222 40.8923C238.834 39.973 241.488 39.3406 240.536 42.3528C239.278 46.3626 237.765 50.2485 239.793 50.4311C241.032 50.5419 246.508 48.2208 245.811 45.8671C245.204 43.8198 247.767 43.2591 248.223 42.2224C249.912 38.4669 245.081 38.9624 245.941 36.6804C246.802 34.3984 242.029 30.7211 239.421 32.5467C235.177 35.5068 227.894 35.4677 231.721 30.5907C234.466 27.1156 229.569 27.8262 229.569 27.8262C229.569 27.8262 232.53 29.5801 227.548 32.2924C222.28 35.2134 227.111 42.9722 235.222 40.8923Z" fill="#263238"/>
<path d="M245.152 49.8715C244.44 50.9036 243.368 51.6317 242.146 51.9123C240.536 52.2644 239.916 50.8235 240.523 49.376C241.064 48.072 242.551 46.3181 244.089 46.6181C245.628 46.918 245.98 48.5936 245.152 49.8715Z" fill="#E58A7B"/>
<path d="M221.289 106.278C221.289 106.278 216.882 145.717 216.536 160.687C216.184 176.264 231.473 224.844 231.473 224.844L239.297 221.584C239.297 221.584 230.169 177.203 231.473 161.913C232.836 145.202 238.548 106.278 238.548 106.278H221.289Z" fill="#407BFF"/>
<path opacity="0.2" d="M232.243 117.102C228.728 124.392 231.095 138.801 232.999 147.349C233.723 141.318 234.583 134.772 235.398 128.714C235.32 119.397 234.596 112.212 232.243 117.102Z" fill="black"/>
<path d="M238.952 218.993C238.991 218.993 239.877 221.49 239.877 221.49L230.854 225.278L229.432 222.638L238.952 218.993Z" fill="#407BFF"/>
<path d="M230.606 106.278C230.606 106.278 233.977 143.794 236.207 157.845C238.658 173.238 248.269 224.505 248.269 224.505H257.26C257.26 224.505 251.874 174.477 250.857 159.24C249.749 142.705 247.545 106.278 247.545 106.278H230.606Z" fill="#407BFF"/>
<path d="M257.397 222.154C257.436 222.154 257.697 224.671 257.697 224.671H247.812L247.108 221.783L257.397 222.154Z" fill="#407BFF"/>
<path opacity="0.2" d="M253.954 219.189C253.934 219.189 253.914 219.182 253.899 219.169C253.883 219.156 253.873 219.137 253.87 219.117C253.817 218.661 248.96 173.477 248.047 159.785C247.056 144.926 245.061 111.987 245.042 111.655C245.041 111.633 245.049 111.611 245.063 111.594C245.078 111.578 245.098 111.567 245.12 111.563C245.142 111.565 245.162 111.574 245.178 111.59C245.194 111.605 245.203 111.626 245.205 111.648C245.205 111.974 247.219 144.9 248.21 159.772C249.123 173.464 253.98 218.622 254.026 219.104C254.028 219.115 254.027 219.126 254.025 219.137C254.022 219.147 254.017 219.157 254.01 219.166C254.004 219.174 253.995 219.181 253.986 219.187C253.976 219.192 253.965 219.195 253.954 219.196V219.189Z" fill="black"/>
<path d="M235.776 45.8687C235.776 46.2665 235.529 46.586 235.268 46.586C235.007 46.586 234.818 46.2665 234.844 45.8687C234.87 45.471 235.092 45.1516 235.353 45.1516C235.613 45.1516 235.802 45.471 235.776 45.8687Z" fill="#263238"/>
<path d="M231.304 45.8687C231.304 46.2665 231.049 46.586 230.795 46.586C230.541 46.586 230.345 46.2665 230.365 45.8687C230.384 45.471 230.619 45.1516 230.88 45.1516C231.141 45.1516 231.33 45.471 231.304 45.8687Z" fill="#263238"/>
<path d="M232.712 46.0609C232.169 47.2778 231.467 48.4177 230.626 49.4513C231.278 50.1033 232.497 49.8034 232.497 49.8034L232.712 46.0609Z" fill="#DF5753"/>
<path d="M232.829 51.4646C232.814 51.4647 232.799 51.4616 232.785 51.4556C232.771 51.4497 232.759 51.4409 232.749 51.4299C232.738 51.4189 232.73 51.4059 232.725 51.3917C232.72 51.3775 232.718 51.3624 232.718 51.3473C232.72 51.3156 232.734 51.2857 232.757 51.2639C232.78 51.242 232.811 51.2299 232.842 51.2299C233.341 51.2334 233.834 51.1251 234.285 50.913C234.737 50.7008 235.135 50.3903 235.45 50.0042C235.472 49.9831 235.501 49.9713 235.532 49.9713C235.562 49.9713 235.591 49.9831 235.613 50.0042C235.625 50.0145 235.634 50.0271 235.64 50.0412C235.646 50.0552 235.649 50.0704 235.649 50.0857C235.649 50.101 235.646 50.1161 235.64 50.1302C235.634 50.1442 235.625 50.1568 235.613 50.1672C235.276 50.5776 234.85 50.9071 234.368 51.1316C233.887 51.3561 233.361 51.4699 232.829 51.4646Z" fill="#263238"/>
<path d="M236.572 44.6627C236.541 44.6787 236.506 44.687 236.471 44.687C236.436 44.687 236.401 44.6787 236.37 44.6627C236.129 44.5035 235.854 44.4034 235.568 44.3705C235.281 44.3377 234.991 44.373 234.72 44.4736C234.694 44.4876 234.664 44.4959 234.634 44.4978C234.604 44.4998 234.574 44.4954 234.546 44.4849C234.517 44.4745 234.492 44.4582 234.47 44.4371C234.448 44.4161 234.432 44.3907 234.42 44.3627C234.396 44.3057 234.396 44.2414 234.419 44.184C234.442 44.1266 234.487 44.0807 234.544 44.0563C234.885 43.9171 235.255 43.8622 235.621 43.8962C235.988 43.9303 236.341 44.0523 236.65 44.2519C236.675 44.2689 236.697 44.2907 236.713 44.316C236.73 44.3413 236.741 44.3697 236.746 44.3994C236.752 44.4291 236.751 44.4596 236.745 44.4891C236.738 44.5187 236.726 44.5466 236.709 44.5714C236.677 44.6187 236.628 44.6516 236.572 44.6627Z" fill="#263238"/>
<path d="M229.576 43.3635C229.542 43.3527 229.511 43.3349 229.485 43.3113C229.463 43.2901 229.446 43.2647 229.434 43.2367C229.422 43.2087 229.416 43.1787 229.416 43.1483C229.416 43.118 229.422 43.0879 229.434 43.0599C229.446 43.0319 229.463 43.0066 229.485 42.9853C229.733 42.7035 230.044 42.4836 230.393 42.3432C230.742 42.2028 231.118 42.1459 231.493 42.1769C231.523 42.1807 231.551 42.1906 231.577 42.2061C231.603 42.2216 231.625 42.2423 231.642 42.2669C231.659 42.2914 231.671 42.3193 231.677 42.3487C231.682 42.3781 231.682 42.4084 231.675 42.4377C231.663 42.4987 231.628 42.5528 231.577 42.5891C231.526 42.6253 231.464 42.6411 231.402 42.6333C231.105 42.6146 230.809 42.6636 230.534 42.7766C230.26 42.8895 230.015 43.0635 229.817 43.2853C229.788 43.3188 229.75 43.3438 229.707 43.3576C229.665 43.3714 229.62 43.3734 229.576 43.3635Z" fill="#263238"/>
<path d="M254.104 70.0037L247.323 68.2042C247.323 68.2042 240.673 84.5694 238.319 85.6387C235.125 87.0927 227.033 92.1261 223.591 94.5515C223.402 95.36 223.552 97.5247 223.982 98.1115C229.85 97.0487 241.084 92.7259 243.431 90.5287C248.784 85.5148 254.104 70.0037 254.104 70.0037Z" fill="#E58A7B"/>
<path d="M249.371 231.424C249.041 231.452 248.711 231.365 248.438 231.177C248.354 231.101 248.292 231.004 248.256 230.897C248.221 230.789 248.214 230.675 248.236 230.564C248.241 230.494 248.264 230.426 248.303 230.368C248.342 230.31 248.395 230.263 248.458 230.231C249.006 229.957 250.538 230.929 250.714 231.04C250.733 231.052 250.748 231.07 250.756 231.091C250.765 231.112 250.766 231.135 250.76 231.157C250.755 231.18 250.744 231.2 250.728 231.216C250.711 231.233 250.691 231.244 250.668 231.248C250.244 231.356 249.809 231.415 249.371 231.424ZM248.719 230.414C248.669 230.403 248.618 230.403 248.569 230.414C248.544 230.426 248.523 230.446 248.509 230.47C248.495 230.495 248.489 230.523 248.491 230.551C248.474 230.627 248.477 230.705 248.5 230.78C248.523 230.854 248.564 230.921 248.621 230.974C249.167 231.224 249.788 231.254 250.355 231.059C249.853 230.734 249.289 230.514 248.699 230.414H248.719Z" fill="#407BFF"/>
<path d="M250.636 231.255H250.583C250.094 230.981 249.175 229.906 249.312 229.358C249.331 229.27 249.38 229.192 249.45 229.137C249.52 229.081 249.607 229.051 249.697 229.051C249.784 229.038 249.874 229.045 249.958 229.071C250.043 229.097 250.121 229.141 250.186 229.201C250.727 229.664 250.76 231.086 250.76 231.157C250.762 231.179 250.757 231.2 250.747 231.219C250.736 231.237 250.72 231.252 250.701 231.262C250.679 231.266 250.656 231.264 250.636 231.255ZM249.762 229.267H249.716C249.566 229.267 249.547 229.358 249.54 229.384C249.462 229.71 250.042 230.525 250.525 230.903C250.521 230.353 250.35 229.816 250.036 229.364C249.959 229.301 249.862 229.266 249.762 229.267Z" fill="#407BFF"/>
<path d="M232.06 230.618C231.661 230.757 231.227 230.757 230.828 230.618C230.738 230.566 230.663 230.493 230.607 230.406C230.552 230.319 230.518 230.219 230.508 230.116C230.501 230.052 230.51 229.987 230.534 229.926C230.558 229.866 230.596 229.813 230.645 229.771C231.167 229.308 233.299 229.81 233.54 229.868C233.562 229.874 233.581 229.887 233.595 229.904C233.61 229.922 233.618 229.944 233.618 229.966C233.621 229.991 233.616 230.016 233.603 230.037C233.59 230.059 233.57 230.075 233.547 230.084C233.068 230.306 232.57 230.484 232.06 230.618ZM230.997 229.842C230.924 229.858 230.855 229.889 230.795 229.934C230.774 229.95 230.758 229.973 230.748 229.998C230.739 230.023 230.737 230.051 230.743 230.077C230.746 230.145 230.768 230.211 230.804 230.268C230.841 230.325 230.892 230.372 230.952 230.403C231.297 230.592 232.099 230.442 233.136 230.012C232.437 229.836 231.715 229.779 230.997 229.842Z" fill="#407BFF"/>
<path d="M233.527 230.089H233.475C232.823 229.971 231.519 229.222 231.48 228.661C231.48 228.531 231.538 228.348 231.851 228.244C231.957 228.204 232.069 228.188 232.181 228.194C232.294 228.201 232.403 228.231 232.503 228.283C233.208 228.628 233.579 229.88 233.599 229.932C233.603 229.953 233.603 229.975 233.597 229.995C233.591 230.015 233.581 230.034 233.566 230.05C233.556 230.066 233.543 230.079 233.527 230.089ZM231.982 228.439H231.917C231.714 228.511 231.714 228.596 231.714 228.622C231.714 228.954 232.66 229.574 233.318 229.782C233.166 229.259 232.845 228.8 232.406 228.478C232.274 228.414 232.123 228.4 231.982 228.439Z" fill="#407BFF"/>
<path d="M224.145 94.165L217.344 97.2946L216.555 99.2115L219.066 100.907C219.066 100.907 223.76 100.392 225.097 97.3794L224.145 94.165Z" fill="#E58A7B"/>
<path d="M224.432 98.2227C224.276 96.9169 223.845 95.659 223.167 94.5324L224.243 93.7304C225.052 95.0268 225.568 96.4843 225.755 98.001L224.432 98.2227Z" fill="#263238"/>
<path d="M225.592 95.0907C225.736 95.3168 225.807 95.5818 225.795 95.8494C225.783 96.1171 225.688 96.3745 225.525 96.5867C225.361 96.7989 225.136 96.9555 224.88 97.0353C224.624 97.1151 224.35 97.1141 224.095 97.0325C223.84 96.9509 223.616 96.7927 223.454 96.5793C223.292 96.366 223.199 96.1078 223.189 95.8401C223.179 95.5723 223.251 95.3079 223.397 95.0829C223.542 94.8578 223.753 94.6829 224.002 94.5822C224.28 94.4419 224.603 94.4166 224.901 94.5117C225.198 94.6068 225.447 94.8146 225.592 95.0907Z" fill="#263238"/>
<path d="M212.748 99.8279L213.654 100.741L219.757 98.1327L217.344 97.2981L212.748 99.8279Z" fill="#E58A7B"/>
<path opacity="0.2" d="M238.952 218.993C238.991 218.993 239.877 221.49 239.877 221.49L230.854 225.278L229.432 222.638L238.952 218.993Z" fill="black"/>
<path opacity="0.2" d="M257.397 222.154C257.436 222.154 257.697 224.671 257.697 224.671H247.812L247.108 221.783L257.397 222.154Z" fill="black"/>
<path d="M255.871 68.1315C257.664 73.9082 250.655 81.8235 250.655 81.8235L240.973 77.8723C242.12 74.5273 243.443 71.2453 244.937 68.0402C247.91 61.631 254.059 62.2961 255.871 68.1315Z" fill="#407BFF"/>
<path opacity="0.2" d="M255.871 68.1315C257.664 73.9082 250.655 81.8235 250.655 81.8235L240.973 77.8723C242.12 74.5273 243.443 71.2453 244.937 68.0402C247.91 61.631 254.059 62.2961 255.871 68.1315Z" fill="black"/>
<path d="M159.662 10.184H155.495V10.8556H159.662V10.184Z" fill="#407BFF"/>
<path d="M213.598 36.7604L213.094 47.9504L213.764 47.9807L214.269 36.7907L213.598 36.7604Z" fill="#407BFF"/>
<path d="M212.298 13.198H135.362L128.203 173.407H205.139L212.298 13.198Z" fill="#407BFF"/>
<path opacity="0.56" d="M210.003 15.3947H133.067L125.908 175.604H202.844L210.003 15.3947Z" fill="#FAFAFA"/>
<path opacity="0.07" d="M207.708 17.5914H130.772L123.606 177.801H200.542L207.708 17.5914Z" fill="#407BFF"/>
<path d="M198.951 87.4651H133.282L132.734 99.7292H198.404L198.951 87.4651Z" fill="white"/>
<path d="M169.396 78.5289H133.68L133.438 84.0122H169.155L169.396 78.5289Z" fill="#407BFF"/>
<path d="M197.471 120.557H131.802L131.254 132.815H196.924L197.471 120.557Z" fill="white"/>
<path opacity="0.47" d="M185.429 149.36H141.269L140.61 164.056H184.77L185.429 149.36Z" fill="#407BFF"/>
<path d="M182.475 166.332H138.315H138.257C138.251 166.312 138.251 166.292 138.257 166.273L138.909 151.577C138.909 151.567 138.911 151.557 138.915 151.548C138.919 151.539 138.925 151.53 138.932 151.524C138.939 151.517 138.948 151.512 138.957 151.509C138.967 151.505 138.977 151.504 138.987 151.505H183.147C183.164 151.499 183.182 151.499 183.199 151.505C183.199 151.505 183.199 151.544 183.199 151.564L182.56 166.26C182.557 166.28 182.547 166.298 182.531 166.312C182.515 166.325 182.496 166.332 182.475 166.332ZM138.394 166.182H182.397L183.049 151.636H139.046L138.394 166.182Z" fill="white"/>
<path d="M161.683 111.608H132.199L131.958 117.091H161.435L161.683 111.608Z" fill="#407BFF"/>
<path d="M184.588 47.8762C184.413 51.4323 183.144 54.8477 180.956 57.6562C179.331 59.7837 177.24 61.5109 174.844 62.7055C172.449 63.9001 169.811 64.5303 167.134 64.5479C164.971 64.5653 162.827 64.1395 160.834 63.2967C158.842 62.454 157.043 61.2121 155.549 59.6477C154.055 58.0833 152.897 56.2295 152.147 54.2005C151.396 52.1715 151.069 50.0103 151.186 47.8501C151.415 43.367 153.349 39.1408 156.59 36.0358C159.832 32.9308 164.138 31.1816 168.627 31.1459C170.794 31.1255 172.943 31.5502 174.94 32.3939C176.936 33.2375 178.739 34.482 180.235 36.0504C181.731 37.6187 182.89 39.4775 183.638 41.5117C184.387 43.5459 184.71 45.7121 184.588 47.8762Z" fill="white"/>
<path d="M186.159 34.6671C186.117 35.6156 185.779 36.5273 185.194 37.2751C184.763 37.8428 184.207 38.3042 183.569 38.624C182.932 38.9438 182.23 39.1135 181.517 39.1203C180.824 39.1251 180.14 38.9594 179.526 38.6376C178.912 38.3158 178.387 37.8479 177.996 37.2751C177.479 36.5068 177.223 35.5923 177.266 34.6671C177.329 33.4751 177.844 32.352 178.707 31.5269C179.57 30.7019 180.715 30.2369 181.908 30.227C182.484 30.2217 183.055 30.3345 183.586 30.5582C184.116 30.7819 184.595 31.112 184.994 31.5279C185.392 31.9439 185.701 32.437 185.901 32.9769C186.102 33.5168 186.189 34.092 186.159 34.6671Z" fill="#407BFF"/>
<path d="M140.356 93.604C140.325 94.1294 140.095 94.6234 139.714 94.9864C139.333 95.3494 138.829 95.5544 138.302 95.56C138.048 95.5631 137.796 95.5139 137.562 95.4157C137.327 95.3174 137.116 95.1722 136.94 94.9888C136.764 94.8055 136.627 94.588 136.538 94.3498C136.45 94.1116 136.411 93.8578 136.424 93.604C136.454 93.0781 136.683 92.5832 137.065 92.2199C137.446 91.8566 137.951 91.6522 138.478 91.648C138.732 91.6469 138.983 91.6973 139.217 91.7962C139.45 91.8951 139.661 92.0404 139.837 92.2234C140.012 92.4063 140.149 92.623 140.238 92.8604C140.327 93.0977 140.368 93.3507 140.356 93.604Z" fill="#263238"/>
<path d="M149.145 93.6041C149.115 94.1301 148.886 94.625 148.505 94.9882C148.124 95.3515 147.618 95.556 147.091 95.5601C146.838 95.5623 146.586 95.5125 146.353 95.4138C146.119 95.3152 145.908 95.1698 145.733 94.9865C145.558 94.8033 145.422 94.5861 145.334 94.3484C145.245 94.1107 145.207 93.8574 145.22 93.6041C145.25 93.0793 145.478 92.5854 145.858 92.2223C146.238 91.8591 146.742 91.6539 147.267 91.6481C147.522 91.6451 147.774 91.6942 148.008 91.7925C148.242 91.8907 148.454 92.036 148.63 92.2193C148.806 92.4027 148.943 92.6202 149.031 92.8583C149.12 93.0965 149.159 93.3504 149.145 93.6041Z" fill="#263238"/>
<path d="M157.94 93.6041C157.911 94.13 157.682 94.6249 157.3 94.9882C156.919 95.3515 156.413 95.5559 155.887 95.5601C155.633 95.5622 155.381 95.5124 155.147 95.4138C154.913 95.3152 154.702 95.1699 154.526 94.9868C154.35 94.8037 154.214 94.5866 154.125 94.3488C154.036 94.111 153.996 93.8576 154.009 93.6041C154.04 93.0787 154.269 92.5847 154.651 92.2217C155.032 91.8587 155.536 91.6537 156.063 91.6481C156.316 91.646 156.568 91.6958 156.802 91.7943C157.036 91.8929 157.247 92.0382 157.423 92.2214C157.599 92.4045 157.735 92.6216 157.824 92.8593C157.913 93.0971 157.953 93.3505 157.94 93.6041Z" fill="#263238"/>
<path d="M138.876 126.687C138.845 127.213 138.615 127.707 138.234 128.069C137.853 128.432 137.348 128.637 136.822 128.643C136.568 128.645 136.317 128.595 136.083 128.497C135.849 128.398 135.637 128.253 135.462 128.07C135.286 127.887 135.149 127.67 135.06 127.432C134.971 127.194 134.932 126.941 134.944 126.687C134.974 126.161 135.203 125.666 135.585 125.303C135.966 124.94 136.471 124.735 136.998 124.731C137.252 124.729 137.504 124.779 137.738 124.877C137.971 124.976 138.183 125.121 138.359 125.304C138.534 125.488 138.671 125.705 138.76 125.942C138.849 126.18 138.888 126.434 138.876 126.687Z" fill="#263238"/>
<path d="M147.665 126.687C147.637 127.213 147.409 127.707 147.029 128.071C146.648 128.434 146.144 128.639 145.618 128.643C145.364 128.646 145.111 128.597 144.877 128.499C144.643 128.401 144.431 128.255 144.255 128.072C144.079 127.889 143.943 127.671 143.854 127.433C143.765 127.195 143.726 126.941 143.74 126.687C143.77 126.161 143.999 125.666 144.38 125.303C144.761 124.94 145.267 124.735 145.794 124.731C146.047 124.729 146.299 124.779 146.532 124.877C146.766 124.976 146.977 125.122 147.152 125.305C147.327 125.488 147.463 125.705 147.551 125.943C147.64 126.181 147.678 126.434 147.665 126.687Z" fill="#263238"/>
<path d="M156.48 126.687C156.45 127.213 156.221 127.708 155.84 128.071C155.458 128.435 154.953 128.639 154.426 128.643C154.172 128.645 153.921 128.596 153.687 128.497C153.453 128.398 153.241 128.253 153.066 128.07C152.89 127.887 152.753 127.67 152.664 127.432C152.575 127.194 152.536 126.941 152.548 126.687C152.58 126.162 152.809 125.668 153.19 125.305C153.571 124.942 154.076 124.737 154.602 124.731C154.856 124.728 155.108 124.777 155.343 124.876C155.577 124.974 155.789 125.119 155.965 125.302C156.141 125.486 156.277 125.703 156.366 125.941C156.455 126.18 156.493 126.433 156.48 126.687Z" fill="#263238"/>
<path d="M165.256 126.687C165.225 127.213 164.995 127.707 164.614 128.069C164.233 128.432 163.728 128.637 163.202 128.643C162.948 128.645 162.697 128.595 162.463 128.497C162.229 128.398 162.017 128.253 161.842 128.07C161.666 127.887 161.529 127.67 161.44 127.432C161.351 127.194 161.312 126.941 161.324 126.687C161.356 126.162 161.585 125.668 161.966 125.305C162.347 124.942 162.852 124.737 163.378 124.731C163.632 124.729 163.884 124.779 164.117 124.877C164.351 124.976 164.563 125.121 164.739 125.304C164.914 125.488 165.051 125.705 165.14 125.942C165.229 126.18 165.268 126.434 165.256 126.687Z" fill="#263238"/>
<path d="M174.084 126.687C174.053 127.213 173.823 127.707 173.442 128.069C173.061 128.432 172.557 128.637 172.03 128.643C171.776 128.646 171.524 128.597 171.29 128.499C171.055 128.401 170.844 128.255 170.668 128.072C170.492 127.889 170.355 127.671 170.266 127.433C170.178 127.195 170.139 126.941 170.152 126.687C170.182 126.161 170.411 125.666 170.793 125.303C171.174 124.94 171.68 124.735 172.206 124.731C172.46 124.729 172.712 124.779 172.946 124.877C173.18 124.976 173.391 125.121 173.567 125.304C173.743 125.488 173.879 125.705 173.968 125.942C174.057 126.18 174.096 126.434 174.084 126.687Z" fill="#263238"/>
<path d="M172.739 47.0045C175.468 44.3358 175.613 40.0583 173.063 37.4503C170.512 34.8423 166.232 34.8915 163.503 37.5602C160.775 40.2289 160.63 44.5064 163.18 47.1144C165.73 49.7224 170.01 49.6732 172.739 47.0045Z" fill="#407BFF"/>
<path d="M180.956 57.6871C179.328 59.8086 177.236 61.5296 174.84 62.7184C172.444 63.9072 169.808 64.5324 167.134 64.5462C164.541 64.5707 161.981 63.958 159.68 62.7621C157.379 61.5661 155.407 59.8235 153.937 57.6871C157.106 54.5315 162.12 52.4711 167.675 52.4711C173.23 52.4711 178.068 54.5315 180.956 57.6871Z" fill="#407BFF"/>
<path opacity="0.1" d="M172.739 47.0045C175.468 44.3358 175.613 40.0583 173.063 37.4503C170.512 34.8423 166.232 34.8915 163.503 37.5602C160.775 40.2289 160.63 44.5064 163.18 47.1144C165.73 49.7224 170.01 49.6732 172.739 47.0045Z" fill="white"/>
<path opacity="0.1" d="M180.956 57.6871C179.328 59.8086 177.236 61.5296 174.84 62.7184C172.444 63.9072 169.808 64.5324 167.134 64.5462C164.541 64.5707 161.981 63.958 159.68 62.7621C157.379 61.5661 155.407 59.8235 153.937 57.6871C157.106 54.5315 162.12 52.4711 167.675 52.4711C173.23 52.4711 178.068 54.5315 180.956 57.6871Z" fill="white"/>
<path d="M85.0274 102.683C84.408 104.04 83.756 105.526 83.1888 106.98C82.6215 108.434 82.0412 109.914 81.5392 111.407C80.5135 114.337 79.7327 117.346 79.205 120.405L79.0616 121.363C79.0479 121.528 79.0634 121.693 79.1072 121.852C79.2601 122.391 79.5025 122.9 79.8244 123.358C80.6605 124.553 81.6319 125.647 82.7193 126.618C83.8646 127.684 85.066 128.687 86.3184 129.624C87.5702 130.589 88.8872 131.528 90.1847 132.415L88.9655 134.697C85.8665 133.354 82.9255 131.672 80.1961 129.683C78.7393 128.62 77.4246 127.376 76.2841 125.979C75.6094 125.147 75.0824 124.206 74.7258 123.195C74.5233 122.574 74.4177 121.925 74.4128 121.272C74.4128 121.109 74.4128 120.887 74.4128 120.776V120.45L74.478 119.798C74.8511 116.401 75.5654 113.051 76.6101 109.797C77.1186 108.186 77.6598 106.595 78.2792 105.031C78.8986 103.466 79.5376 101.947 80.3265 100.369L85.0274 102.683Z" fill="#E58A7B"/>
<path d="M89.2652 132.019L93.8748 129.678L92.6817 134.744C92.6817 134.744 89.5195 135.631 88.0525 134.092L89.2652 132.019Z" fill="#E58A7B"/>
<path d="M98.0935 130.514L96.8677 134.7L92.6819 134.746L93.875 129.686L98.0935 130.514Z" fill="#E58A7B"/>
<path d="M104.6 78.274C104.852 79.1777 105.2 80.052 105.637 80.882C105.51 81.0257 105.347 81.1325 105.164 81.1911C104.982 81.2496 104.787 81.2577 104.6 81.2145V78.274Z" fill="#DF5753"/>
<path d="M104.464 78.3147C104.734 78.3147 104.953 77.979 104.953 77.5649C104.953 77.1508 104.734 76.8151 104.464 76.8151C104.194 76.8151 103.975 77.1508 103.975 77.5649C103.975 77.979 104.194 78.3147 104.464 78.3147Z" fill="#263238"/>
<path d="M104.32 76.839L105.311 76.5521C105.311 76.5521 104.829 77.328 104.32 76.839Z" fill="#263238"/>
<path d="M91.8669 83.0543C92.4602 86.0926 93.0535 91.6541 90.928 93.6753C90.928 93.6753 91.7625 96.7593 97.4023 96.7593C103.603 96.7593 100.362 93.6819 100.362 93.6819C96.9785 92.8734 97.0633 90.3567 97.6566 88.0029L91.8669 83.0543Z" fill="#E58A7B"/>
<path d="M90.2173 76.1485C90.5303 81.2145 90.5564 83.3661 93.1122 85.9676C96.9655 89.8796 103.12 88.3865 104.327 83.3596C105.415 78.7956 104.724 71.2846 99.7626 69.2634C98.6729 68.8163 97.4872 68.6543 96.3175 68.7927C95.1478 68.9311 94.0327 69.3653 93.0774 70.0544C92.1221 70.7435 91.3582 71.6646 90.8578 72.7309C90.3574 73.7971 90.1369 74.9734 90.2173 76.1485Z" fill="#E58A7B"/>
<path d="M90.7193 70.4183C88.1765 71.3442 84.7861 70.653 86.1162 78.4966C87.5245 86.7966 85.3599 89.5284 85.3599 89.5284C85.3599 89.5284 95.0029 91.5888 104.848 89.4111C104.848 89.4111 101.842 84.1494 102.684 80.3157C103.759 75.4257 102.912 73.6196 102.912 73.6196C102.912 73.6196 94.2923 69.1143 90.7193 70.4183Z" fill="#263238"/>
<path d="M101.477 78.789C101.48 79.7522 101.756 80.695 102.273 81.5078C102.964 82.5641 103.779 82.1598 103.981 81.0384C104.164 80.0473 104.027 78.3065 103.146 77.6349C102.266 76.9634 101.49 77.6414 101.477 78.789Z" fill="#E58A7B"/>
<path d="M88.5092 71.3063C87.779 69.2525 91.2607 66.0903 98.6283 67.3943C105.996 68.6983 106.315 74.8271 106.315 74.8271L104.829 73.0602L104.894 74.9249L97.3243 76.3789L88.5092 71.3063Z" fill="#263238"/>
<path d="M89.1351 94.0232C89.0898 93.7252 89.1637 93.4214 89.3405 93.1774C89.5174 92.9334 89.7832 92.7688 90.0805 92.7192C92.3755 92.341 97.5915 91.5716 100.213 91.9368C102.169 92.2041 102.677 93.3451 102.762 94.2774C102.775 94.4407 102.753 94.6049 102.698 94.759C102.642 94.9131 102.555 95.0536 102.44 95.171C102.326 95.2883 102.188 95.3798 102.035 95.4394C101.883 95.499 101.719 95.5252 101.556 95.5162L90.2239 95.0077C89.9568 94.9942 89.7025 94.8888 89.5041 94.7094C89.3056 94.53 89.1753 94.2876 89.1351 94.0232Z" fill="#407BFF"/>
<path opacity="0.6" d="M89.1351 94.0232C89.0898 93.7252 89.1637 93.4214 89.3405 93.1774C89.5174 92.9334 89.7832 92.7688 90.0805 92.7192C92.3755 92.341 97.5915 91.5716 100.213 91.9368C102.169 92.2041 102.677 93.3451 102.762 94.2774C102.775 94.4407 102.753 94.6049 102.698 94.759C102.642 94.9131 102.555 95.0536 102.44 95.171C102.326 95.2883 102.188 95.3798 102.035 95.4394C101.883 95.499 101.719 95.5252 101.556 95.5162L90.2239 95.0077C89.9568 94.9942 89.7025 94.8888 89.5041 94.7094C89.3056 94.53 89.1753 94.2876 89.1351 94.0232Z" fill="black"/>
<path d="M95.6875 207.93L99.8929 210.845L106.928 201.313L102.723 198.392L95.6875 207.93Z" fill="#E58A7B"/>
<path d="M85.8816 207.735L90.3217 210.272L96.5483 200.185L92.1082 197.649L85.8816 207.735Z" fill="#E58A7B"/>
<path d="M106.921 201.315L103.296 206.231L99.0908 203.31L102.716 198.401L106.921 201.315Z" fill="#CF6F64"/>
<path d="M92.1014 197.653L96.548 200.183L93.3402 205.379L88.8936 202.85L92.1014 197.653Z" fill="#CF6F64"/>
<path d="M99.2344 125.838C99.2344 125.838 115.652 146.526 112.568 166.314C110.084 182.294 95.6745 203.934 95.6745 203.934L88.9002 200.57C93.6751 191.002 97.7499 181.1 101.093 170.943C102.123 167.789 102.424 164.443 101.972 161.156C101.521 157.869 100.328 154.728 98.4846 151.97C90.1651 139.823 76.8382 147.047 85.8032 125.838H99.2344Z" fill="#407BFF"/>
<path opacity="0.6" d="M99.2344 125.838C99.2344 125.838 115.652 146.526 112.568 166.314C110.084 182.294 95.6745 203.934 95.6745 203.934L88.9002 200.57C93.6751 191.002 97.7499 181.1 101.093 170.943C102.123 167.789 102.424 164.443 101.972 161.156C101.521 157.869 100.328 154.728 98.4846 151.97C90.1651 139.823 76.8382 147.047 85.8032 125.838H99.2344Z" fill="black"/>
<path opacity="0.4" d="M107.286 139.16L104.9 136.786C104.9 136.975 109.523 165.507 110.82 173.527C111.586 171.184 112.172 168.786 112.574 166.355C114.1 156.653 110.912 146.742 107.286 139.16Z" fill="black"/>
<path d="M106.563 125.838C106.563 125.838 126.331 151.839 126.892 167.429C127.355 180.469 105.376 205.734 105.376 205.734L98.9866 201.6C98.9866 201.6 111.851 183.657 115.091 169C113.839 154.526 87.3679 125.838 87.3679 125.838H106.563Z" fill="#407BFF"/>
<path opacity="0.6" d="M106.563 125.838C106.563 125.838 126.331 151.839 126.892 167.429C127.355 180.469 105.376 205.734 105.376 205.734L98.9866 201.6C98.9866 201.6 111.851 183.657 115.091 169C113.839 154.526 87.3679 125.838 87.3679 125.838H106.563Z" fill="black"/>
<path d="M82.1065 94.8437C79.994 95.3392 77.9663 103.026 77.9663 103.026L86.2271 108.536C86.2271 108.536 88.9786 102.466 88.0136 99.8054C87.0161 97.0344 84.7601 94.2112 82.1065 94.8437Z" fill="#407BFF"/>
<path opacity="0.2" d="M83.7234 99.7584L83.1497 106.454L86.2206 108.515C87.0674 106.605 87.6951 104.606 88.0918 102.555L83.7234 99.7584Z" fill="black"/>
<path d="M109.008 94.9832C109.008 94.9832 111.446 95.8438 106.563 125.862H85.7902C86.1423 117.386 86.1488 112.17 82.1064 94.8398C85.0152 94.24 87.9633 93.85 90.928 93.6727C94.0689 93.4506 97.2215 93.4506 100.362 93.6727C104.418 94.0443 109.008 94.9832 109.008 94.9832Z" fill="#407BFF"/>
<path d="M111.12 99.7598C111.59 101.064 112.085 102.472 112.607 103.822C113.129 105.171 113.624 106.56 114.152 107.923L115.75 112.017L116.154 113.041L116.362 113.556L116.46 113.81C116.46 113.856 116.46 113.856 116.46 113.849C116.341 113.68 116.185 113.54 116.004 113.439C115.747 113.286 115.455 113.201 115.156 113.191C114.908 113.182 114.662 113.226 114.433 113.321C114.133 113.465 114.133 113.523 114.139 113.517C114.192 113.472 114.24 113.421 114.283 113.367C114.642 112.892 114.954 112.383 115.215 111.848C115.521 111.248 115.815 110.609 116.108 109.964C116.682 108.66 117.21 107.31 117.738 105.947C118.266 104.585 118.768 103.202 119.257 101.82L120.744 97.6538L123.254 98.3058C122.759 101.279 122.12 104.174 121.35 107.121C120.979 108.588 120.542 110.042 120.046 111.509C119.798 112.239 119.525 112.976 119.212 113.719C118.887 114.536 118.485 115.319 118.012 116.06C117.839 116.308 117.647 116.544 117.438 116.764C117.104 117.122 116.7 117.408 116.252 117.605C115.853 117.776 115.421 117.856 114.987 117.84C114.5 117.819 114.027 117.676 113.611 117.422C113.119 117.12 112.711 116.698 112.424 116.197C112.327 116.027 112.242 115.858 112.183 115.734L112.059 115.479L111.812 114.977L111.316 113.96C110.664 112.604 110.012 111.241 109.445 109.866C108.877 108.49 108.278 107.088 107.717 105.693C107.156 104.298 106.654 102.889 106.178 101.377L111.12 99.7598Z" fill="#E58A7B"/>
<path d="M109.008 94.9864C111.505 95.5862 114.315 102.96 114.315 102.96L106.889 109.285C106.889 109.285 102.083 101.239 103.055 98.5854C104.066 95.847 105.748 94.2105 109.008 94.9864Z" fill="#407BFF"/>
<path d="M121.924 95.3502L124.532 93.1725L126.345 95.9892L125.008 98.3494C125.008 98.3494 122.882 100.305 121.005 99.3079C120.707 98.638 120.635 97.8892 120.801 97.175C120.967 96.4608 121.361 95.8202 121.924 95.3502Z" fill="#E58A7B"/>
<path d="M129.239 93.1791L129.044 93.8832L124.917 94.5809L124.512 93.1725L129.239 93.1791Z" fill="#E58A7B"/>
<path d="M105.885 206.1L98.439 201.282L99.7756 198.968L108.141 204.112L105.885 206.1Z" fill="#407BFF"/>
<path d="M93.236 209.947C92.582 209.87 91.9537 209.648 91.3974 209.295C91.3752 209.286 91.3568 209.269 91.345 209.248C91.3332 209.226 91.3287 209.202 91.3322 209.178C91.3362 209.155 91.346 209.133 91.3609 209.115C91.3757 209.096 91.3951 209.082 91.417 209.074C91.6191 209.015 93.373 208.474 93.8815 208.891C93.9387 208.937 93.9822 208.998 94.0075 209.067C94.0328 209.136 94.0388 209.21 94.025 209.282C94.0164 209.401 93.9777 209.515 93.9127 209.614C93.8477 209.713 93.7584 209.794 93.6533 209.849C93.5236 209.914 93.3808 209.947 93.236 209.947ZM91.769 209.237C92.584 209.647 93.236 209.804 93.549 209.647C93.6181 209.609 93.676 209.553 93.7171 209.486C93.7583 209.419 93.7812 209.342 93.7837 209.263C93.7925 209.232 93.7916 209.199 93.7811 209.169C93.7706 209.138 93.751 209.112 93.725 209.093C93.4512 208.852 92.4732 209.021 91.756 209.217L91.769 209.237Z" fill="#263238"/>
<path d="M91.443 209.294C91.4086 209.294 91.3758 209.28 91.3517 209.255C91.342 209.237 91.3369 209.217 91.3369 209.196C91.3369 209.176 91.342 209.156 91.3517 209.138C91.3517 209.079 91.7755 207.664 92.4405 207.338C92.5255 207.299 92.6178 207.279 92.7111 207.279C92.8045 207.279 92.8968 207.299 92.9817 207.338C93.0733 207.367 93.1525 207.426 93.2069 207.505C93.2612 207.584 93.2875 207.679 93.2816 207.775C93.236 208.362 92.0428 209.17 91.4951 209.301L91.443 209.294ZM92.7079 207.514C92.644 207.513 92.581 207.529 92.5253 207.56C92.1211 207.749 91.7885 208.518 91.6255 208.981C92.1993 208.74 92.9882 208.101 93.0143 207.742C93.0143 207.684 93.0143 207.606 92.8643 207.547C92.8136 207.532 92.7607 207.525 92.7079 207.527V207.514Z" fill="#263238"/>
<path d="M102.54 212.742C101.803 212.742 100.78 211.803 100.219 211.223C100.204 211.203 100.197 211.179 100.197 211.154C100.197 211.13 100.204 211.106 100.219 211.086C100.231 211.064 100.249 211.046 100.271 211.033C100.293 211.021 100.318 211.014 100.343 211.014C100.603 211.053 102.866 211.353 103.185 211.998C103.219 212.056 103.237 212.121 103.237 212.188C103.237 212.254 103.219 212.319 103.185 212.377C103.137 212.476 103.065 212.562 102.975 212.626C102.885 212.69 102.78 212.729 102.67 212.742H102.54ZM100.649 211.307C101.471 212.109 102.194 212.553 102.605 212.5C102.677 212.491 102.746 212.464 102.805 212.422C102.864 212.38 102.912 212.324 102.944 212.259C102.959 212.236 102.966 212.209 102.966 212.181C102.966 212.153 102.959 212.126 102.944 212.103C102.775 211.757 101.568 211.457 100.649 211.307Z" fill="#263238"/>
<path d="M100.721 211.288C100.575 211.292 100.428 211.281 100.284 211.255C100.264 211.251 100.244 211.242 100.229 211.228C100.213 211.214 100.2 211.197 100.193 211.177C100.183 211.159 100.178 211.139 100.178 211.118C100.178 211.098 100.183 211.078 100.193 211.06C100.232 211.014 101.112 209.951 101.947 209.88C102.064 209.869 102.182 209.882 102.294 209.918C102.406 209.954 102.51 210.012 102.599 210.088C102.853 210.31 102.84 210.506 102.775 210.629C102.612 211.066 101.484 211.288 100.721 211.288ZM100.552 211.047C101.282 211.086 102.449 210.845 102.599 210.525C102.599 210.525 102.651 210.421 102.482 210.271C102.414 210.213 102.335 210.17 102.249 210.145C102.164 210.119 102.074 210.111 101.986 210.121C101.422 210.271 100.92 210.595 100.552 211.047Z" fill="#263238"/>
<path d="M91.619 208.643L86.0901 207.078C85.9956 207.049 85.8936 207.055 85.8035 207.096C85.7133 207.137 85.6413 207.209 85.6011 207.3L83.7364 211.499C83.6926 211.606 83.672 211.722 83.676 211.837C83.68 211.953 83.7086 212.067 83.7597 212.171C83.8108 212.275 83.8834 212.367 83.9726 212.441C84.0619 212.515 84.1658 212.57 84.2775 212.601C86.2335 213.109 87.1724 213.253 89.6044 213.944C91.104 214.368 93.2425 215.143 95.3094 215.724C97.3762 216.304 98.0673 214.296 97.2654 213.872C93.6402 211.949 93.3534 210.612 92.3623 209.178C92.1873 208.915 91.9233 208.726 91.619 208.643Z" fill="#407BFF"/>
<path d="M100.369 210.459L95.6486 207.199C95.5673 207.142 95.4685 207.117 95.3703 207.128C95.2721 207.139 95.1811 207.185 95.114 207.257L91.9844 210.615C91.908 210.703 91.851 210.805 91.8172 210.916C91.7835 211.028 91.7736 211.145 91.7884 211.26C91.8032 211.375 91.8423 211.486 91.903 211.585C91.9638 211.684 92.0448 211.769 92.1408 211.834C93.8034 212.943 94.6641 213.399 96.744 214.84C98.048 215.727 100.571 217.696 102.332 218.922C104.092 220.147 105.403 218.465 104.777 217.8C101.973 214.801 101.36 212.923 100.897 211.221C100.818 210.912 100.631 210.642 100.369 210.459Z" fill="#407BFF"/>
<path d="M96.5418 204.388L88.0332 200.157L88.9134 197.855L98.0023 202.309L96.5418 204.388Z" fill="#407BFF"/>
<path d="M85.4772 124.646L84.76 126.491C84.6883 126.634 84.8578 126.778 85.099 126.778H106.667C106.856 126.778 107.013 126.687 107.026 126.569L107.208 124.711C107.208 124.581 107.058 124.476 106.856 124.476H85.8162C85.7498 124.472 85.6835 124.486 85.624 124.516C85.5644 124.545 85.5138 124.59 85.4772 124.646Z" fill="#407BFF"/>
<path opacity="0.4" d="M85.4772 124.646L84.76 126.491C84.6883 126.634 84.8578 126.778 85.099 126.778H106.667C106.856 126.778 107.013 126.687 107.026 126.569L107.208 124.711C107.208 124.581 107.058 124.476 106.856 124.476H85.8162C85.7498 124.472 85.6835 124.486 85.624 124.516C85.5644 124.545 85.5138 124.59 85.4772 124.646Z" fill="white"/>
<path d="M88.8741 126.991H88.3069C88.196 126.991 88.1113 126.939 88.1178 126.867L88.3851 124.448C88.3851 124.376 88.4894 124.318 88.6003 124.318H89.1675C89.2783 124.318 89.3631 124.376 89.3566 124.448L89.0893 126.867C89.0827 126.939 88.9849 126.991 88.8741 126.991Z" fill="#407BFF"/>
<path d="M102.175 126.991H101.614C101.503 126.991 101.419 126.939 101.425 126.867L101.686 124.448C101.686 124.376 101.797 124.318 101.908 124.318H102.468C102.579 124.318 102.67 124.376 102.657 124.448L102.397 126.867C102.364 126.939 102.292 126.991 102.175 126.991Z" fill="#407BFF"/>
<g style="mix-blend-mode:multiply">
<path d="M88.3787 237.414C98.0255 237.414 105.846 236.847 105.846 236.149C105.846 235.45 98.0255 234.884 88.3787 234.884C78.7319 234.884 70.9116 235.45 70.9116 236.149C70.9116 236.847 78.7319 237.414 88.3787 237.414Z" fill="#F5F5F5"/>
</g>
<path d="M99.0193 234.361C95.9288 233.461 92.4993 232.307 90.426 231.101L90.2434 231.016V217.018H96.4961C96.9707 216.99 97.4167 216.781 97.7428 216.435C98.069 216.089 98.2506 215.632 98.2506 215.156C98.2506 214.681 98.069 214.223 97.7428 213.877C97.4167 213.531 96.9707 213.323 96.4961 213.295H90.276V149.51H86.5205V213.295H80.3069C80.0532 213.28 79.7991 213.317 79.5602 213.404C79.3213 213.49 79.1027 213.625 78.9177 213.799C78.7328 213.974 78.5854 214.184 78.4847 214.417C78.3839 214.651 78.332 214.902 78.332 215.156C78.332 215.41 78.3839 215.662 78.4847 215.895C78.5854 216.129 78.7328 216.339 78.9177 216.513C79.1027 216.688 79.3213 216.822 79.5602 216.909C79.7991 216.996 80.0532 217.033 80.3069 217.018H86.5205V230.99L86.3444 231.075C84.2385 232.307 80.835 233.461 77.7446 234.335C77.5358 234.398 77.3565 234.534 77.2392 234.718C77.1219 234.902 77.0743 235.121 77.1051 235.337C77.1358 235.553 77.2428 235.751 77.4068 235.895C77.5707 236.039 77.7808 236.119 77.9988 236.121H98.765C98.9707 236.104 99.1644 236.018 99.3146 235.876C99.4648 235.735 99.5626 235.546 99.5921 235.342C99.6216 235.138 99.581 234.93 99.477 234.752C99.373 234.573 99.2117 234.436 99.0193 234.361Z" fill="#E0E0E0"/>
<path d="M99.9778 143.021H76.7926C74.9274 143.021 73.4153 144.533 73.4153 146.398V153.29C73.4153 155.155 74.9274 156.667 76.7926 156.667H99.9778C101.843 156.667 103.355 155.155 103.355 153.29V146.398C103.355 144.533 101.843 143.021 99.9778 143.021Z" fill="#407BFF"/>
<path d="M76.5774 156.671V157.858C76.5774 158.836 77.6402 159.638 78.9442 159.638H97.8522C99.1562 159.638 100.219 158.836 100.219 157.858V156.671H76.5774Z" fill="#407BFF"/>
<path opacity="0.3" d="M76.5774 156.671V157.858C76.5774 158.836 77.6402 159.638 78.9442 159.638H97.8522C99.1562 159.638 100.219 158.836 100.219 157.858V156.671H76.5774Z" fill="white"/>
</svg>
