<svg width="40" height="40" viewBox="0 0 40 40" fill="none" xmlns="http://www.w3.org/2000/svg">
<path d="M34.2857 19.9996C34.2857 19.361 33.8664 18.8203 33.2885 18.6374C33.5678 18.0996 33.4821 17.421 33.0307 16.9689C32.5792 16.5174 31.9007 16.4317 31.3621 16.711C31.1792 16.1332 30.6385 15.7139 29.9999 15.7139C29.3614 15.7139 28.8207 16.1332 28.6378 16.711C28.0999 16.4317 27.4214 16.5174 26.9692 16.9689C26.5178 17.4203 26.4314 18.0989 26.7114 18.6374C26.1335 18.8203 25.7142 19.361 25.7142 19.9996C25.7142 20.6382 26.1335 21.1789 26.7114 21.3617C26.4321 21.8996 26.5178 22.5782 26.9692 23.0303C27.4207 23.4817 28.0992 23.5682 28.6378 23.2882C28.8207 23.866 29.3614 24.2853 29.9999 24.2853C30.6385 24.2853 31.1792 23.866 31.3621 23.2882C31.8999 23.5674 32.5785 23.4817 33.0307 23.0303C33.4821 22.5789 33.5685 21.9003 33.2885 21.3617C33.8664 21.1789 34.2857 20.6382 34.2857 19.9996Z" fill="#F0F0F0"/>
<path d="M29.9999 15.7139C29.3614 15.7139 28.8207 16.1332 28.6378 16.711C28.0999 16.4317 27.4214 16.5174 26.9692 16.9689C26.5178 17.4203 26.4314 18.0989 26.7114 18.6374C26.1335 18.8203 25.7142 19.361 25.7142 19.9996C25.7142 20.6382 26.1335 21.1789 26.7114 21.3617C26.4657 21.8346 26.5028 22.416 26.8214 22.8567H29.2857C30.0749 22.8567 30.7142 22.2174 30.7142 21.4282V15.9053C30.5042 15.7832 30.2599 15.7139 29.9999 15.7139Z" fill="#D2D2D2"/>
<path d="M30 21.4284C30.789 21.4284 31.4286 20.7888 31.4286 19.9999C31.4286 19.2109 30.789 18.5713 30 18.5713C29.211 18.5713 28.5714 19.2109 28.5714 19.9999C28.5714 20.7888 29.211 21.4284 30 21.4284Z" fill="#FAB400"/>
<path d="M30.7143 21.237V18.7627C30.5043 18.6413 30.26 18.5713 30 18.5713C29.2107 18.5713 28.5714 19.2106 28.5714 19.9999C28.5714 20.7891 29.2107 21.4284 30 21.4284C30.26 21.4284 30.5043 21.3584 30.7143 21.237Z" fill="#DC9600"/>
<path d="M14.2857 19.9996C14.2857 19.361 13.8664 18.8203 13.2885 18.6374C13.5678 18.0996 13.4821 17.421 13.0307 16.9689C12.5792 16.5174 11.9007 16.4317 11.3621 16.711C11.1792 16.1332 10.6385 15.7139 9.99995 15.7139C9.36138 15.7139 8.82066 16.1332 8.6378 16.711C8.09995 16.4317 7.42138 16.5174 6.96923 16.9689C6.5178 17.4203 6.43138 18.0989 6.71138 18.6374C6.13352 18.8203 5.71423 19.361 5.71423 19.9996C5.71423 20.6382 6.13352 21.1789 6.71138 21.3617C6.43209 21.8996 6.5178 22.5782 6.96923 23.0303C7.42066 23.4817 8.09923 23.5682 8.6378 23.2882C8.82066 23.866 9.36138 24.2853 9.99995 24.2853C10.6385 24.2853 11.1792 23.866 11.3621 23.2882C11.8999 23.5674 12.5785 23.4817 13.0307 23.0303C13.4821 22.5789 13.5685 21.9003 13.2885 21.3617C13.8664 21.1789 14.2857 20.6382 14.2857 19.9996Z" fill="#F0F0F0"/>
<path d="M13.2885 18.6374C13.5678 18.0996 13.4821 17.421 13.0306 16.9689C12.5792 16.5174 11.9006 16.4317 11.3621 16.711C11.1792 16.1332 10.6385 15.7139 9.99993 15.7139C9.73993 15.7139 9.49564 15.7832 9.28564 15.9053V21.4282C9.28564 22.2174 9.92493 22.8567 10.7142 22.8567H13.1778C13.4971 22.416 13.5335 21.8346 13.2878 21.3617C13.8664 21.1789 14.2856 20.6382 14.2856 19.9996C14.2856 19.361 13.8664 18.8203 13.2885 18.6374Z" fill="#D2D2D2"/>
<path d="M9.99998 21.4284C10.789 21.4284 11.4286 20.7888 11.4286 19.9999C11.4286 19.2109 10.789 18.5713 9.99998 18.5713C9.211 18.5713 8.57141 19.2109 8.57141 19.9999C8.57141 20.7888 9.211 21.4284 9.99998 21.4284Z" fill="#FAB400"/>
<path d="M9.99993 18.5713C9.73993 18.5713 9.49564 18.6413 9.28564 18.7627V21.237C9.49564 21.3584 9.73993 21.4284 9.99993 21.4284C10.7892 21.4284 11.4285 20.7891 11.4285 19.9999C11.4285 19.2106 10.7892 18.5713 9.99993 18.5713Z" fill="#DC9600"/>
<path d="M28.5714 22.8571H11.4286C10.6393 22.8571 10 22.2179 10 21.4286V1.42857C10 0.639286 10.6393 0 11.4286 0H28.5714C29.3607 0 30 0.639286 30 1.42857V21.4286C30 22.2179 29.3607 22.8571 28.5714 22.8571Z" fill="#00A0C8"/>
<path d="M28.505 20.2833C28.3221 19.7054 27.7814 19.2861 27.1429 19.2861C26.5043 19.2861 25.9636 19.7054 25.7807 20.2833C25.2429 20.004 24.5643 20.0897 24.1121 20.5411C23.6607 20.9926 23.5743 21.6711 23.8543 22.2097C23.755 22.2411 23.66 22.2833 23.5714 22.3347C23.4829 22.2833 23.3879 22.2411 23.2886 22.2097C23.5679 21.6718 23.4821 20.9933 23.0307 20.5411C22.5793 20.0897 21.9007 20.004 21.3621 20.2833C21.1793 19.7054 20.6386 19.2861 20 19.2861C19.3614 19.2861 18.8207 19.7054 18.6379 20.2833C18.1 20.004 17.4214 20.0897 16.9693 20.5411C16.5179 20.9926 16.4314 21.6711 16.7114 22.2097C16.6121 22.2411 16.5171 22.2833 16.4286 22.3347C16.34 22.2833 16.245 22.2411 16.1457 22.2097C16.425 21.6718 16.3393 20.9933 15.8879 20.5411C15.4364 20.0897 14.7579 20.004 14.2193 20.2833C14.0364 19.7054 13.4957 19.2861 12.8571 19.2861C12.2186 19.2861 11.6779 19.7054 11.495 20.2833C11.0221 20.0376 10.4407 20.0747 10 20.3933V21.429C10 22.2183 10.6393 22.8576 11.4286 22.8576H28.5714C29.3607 22.8576 30 22.2183 30 21.429V20.3933C29.5593 20.0747 28.9779 20.0376 28.505 20.2833Z" fill="#0082AA"/>
<path d="M26.4286 20.0003H13.5715C13.1772 20.0003 12.8572 19.6803 12.8572 19.286V3.57171C12.8572 3.17742 13.1772 2.85742 13.5715 2.85742H26.4286C26.8229 2.85742 27.1429 3.17742 27.1429 3.57171V19.286C27.1429 19.6803 26.8229 20.0003 26.4286 20.0003Z" fill="#F0F0F0"/>
<path d="M25.7143 20.0003H14.2858V15.0003C14.2858 13.8167 15.2451 12.8574 16.4286 12.8574H23.5715C24.7551 12.8574 25.7143 13.8167 25.7143 15.0003V20.0003Z" fill="#C80A50"/>
<path d="M20.0001 14.2863C19.2108 14.2863 18.5715 13.647 18.5715 12.8577V10.7148H21.4287V12.8577C21.4287 13.647 20.7894 14.2863 20.0001 14.2863Z" fill="#D2AA82"/>
<path d="M20.7144 11.4291H19.2858C18.1022 11.4291 17.1429 10.4698 17.1429 9.28627V7.14342C17.1429 6.35413 17.7822 5.71484 18.5715 5.71484H21.4287C22.2179 5.71484 22.8572 6.35413 22.8572 7.14342V9.28627C22.8572 10.4698 21.8979 11.4291 20.7144 11.4291Z" fill="#F0C8A0"/>
<path d="M21.4287 5.7147H18.5715C17.7822 5.7147 17.1429 6.35399 17.1429 7.14328V5.7147C17.1429 4.92542 17.7822 4.28613 18.5715 4.28613H21.4287C22.2179 4.28613 22.8572 4.92542 22.8572 5.7147V7.14328C22.8572 6.35399 22.2179 5.7147 21.4287 5.7147Z" fill="#0A5078"/>
<path d="M24.2857 24.2857C24.2857 23.6471 23.8664 23.1064 23.2885 22.9236C23.5678 22.3857 23.4821 21.7071 23.0307 21.255C22.5792 20.8036 21.9007 20.7179 21.3621 20.9971C21.1792 20.4193 20.6385 20 19.9999 20C19.3614 20 18.8207 20.4193 18.6378 20.9971C18.0999 20.7179 17.4214 20.8036 16.9692 21.255C16.5178 21.7064 16.4314 22.385 16.7114 22.9236C16.1335 23.1064 15.7142 23.6471 15.7142 24.2857C15.7142 24.9243 16.1335 25.465 16.7114 25.6479C16.4321 26.1857 16.5178 26.8643 16.9692 27.3164C17.4207 27.7679 18.0992 27.8543 18.6378 27.5743C18.8207 28.1521 19.3614 28.5714 19.9999 28.5714C20.6385 28.5714 21.1792 28.1521 21.3621 27.5743C21.8999 27.8536 22.5785 27.7679 23.0307 27.3164C23.4821 26.865 23.5685 26.1864 23.2885 25.6479C23.8664 25.465 24.2857 24.9243 24.2857 24.2857Z" fill="#F0F0F0"/>
<path d="M20 25.7146C20.789 25.7146 21.4286 25.075 21.4286 24.286C21.4286 23.497 20.789 22.8574 20 22.8574C19.211 22.8574 18.5714 23.497 18.5714 24.286C18.5714 25.075 19.211 25.7146 20 25.7146Z" fill="#FAB400"/>
<path d="M31.4286 24.2857C31.4286 23.6471 31.0093 23.1064 30.4315 22.9236C30.7107 22.3857 30.625 21.7071 30.1736 21.255C29.7222 20.8036 29.0436 20.7179 28.505 20.9971C28.3222 20.4193 27.7815 20 27.1429 20C26.5043 20 25.9636 20.4193 25.7807 20.9971C25.2429 20.7179 24.5643 20.8036 24.1122 21.255C23.6607 21.7064 23.5743 22.385 23.8543 22.9236C23.2765 23.1064 22.8572 23.6471 22.8572 24.2857C22.8572 24.9243 23.2765 25.465 23.8543 25.6479C23.575 26.1857 23.6607 26.8643 24.1122 27.3164C24.5636 27.7679 25.2422 27.8543 25.7807 27.5743C25.9636 28.1521 26.5043 28.5714 27.1429 28.5714C27.7815 28.5714 28.3222 28.1521 28.505 27.5743C29.0429 27.8536 29.7215 27.7679 30.1736 27.3164C30.625 26.865 30.7115 26.1864 30.4315 25.6479C31.0093 25.465 31.4286 24.9243 31.4286 24.2857Z" fill="#F0F0F0"/>
<path d="M27.1429 25.7146C27.9319 25.7146 28.5715 25.075 28.5715 24.286C28.5715 23.497 27.9319 22.8574 27.1429 22.8574C26.3539 22.8574 25.7144 23.497 25.7144 24.286C25.7144 25.075 26.3539 25.7146 27.1429 25.7146Z" fill="#FAB400"/>
<path d="M17.1428 24.2857C17.1428 23.6471 16.7236 23.1064 16.1457 22.9236C16.425 22.3857 16.3393 21.7071 15.8878 21.255C15.4364 20.8036 14.7578 20.7179 14.2193 20.9971C14.0364 20.4193 13.4957 20 12.8571 20C12.2186 20 11.6778 20.4193 11.495 20.9971C10.9571 20.7179 10.2786 20.8036 9.82641 21.255C9.37498 21.7064 9.28855 22.385 9.56855 22.9236C8.9907 23.1064 8.57141 23.6471 8.57141 24.2857C8.57141 24.9243 8.9907 25.465 9.56855 25.6479C9.28927 26.1857 9.37498 26.8643 9.82641 27.3164C10.2778 27.7679 10.9564 27.8543 11.495 27.5743C11.6778 28.1521 12.2186 28.5714 12.8571 28.5714C13.4957 28.5714 14.0364 28.1521 14.2193 27.5743C14.7571 27.8536 15.4357 27.7679 15.8878 27.3164C16.3393 26.865 16.4257 26.1864 16.1457 25.6479C16.7236 25.465 17.1428 24.9243 17.1428 24.2857Z" fill="#F0F0F0"/>
<path d="M12.8572 25.7146C13.6461 25.7146 14.2857 25.075 14.2857 24.286C14.2857 23.497 13.6461 22.8574 12.8572 22.8574C12.0682 22.8574 11.4286 23.497 11.4286 24.286C11.4286 25.075 12.0682 25.7146 12.8572 25.7146Z" fill="#FAB400"/>
<path d="M25.0001 34.2852H15.0001C14.6058 34.2852 14.2858 34.6052 14.2858 34.9994V39.2852C14.2858 39.6794 14.6058 39.9994 15.0001 39.9994H25.0001C25.3943 39.9994 25.7143 39.6794 25.7143 39.2852V34.9994C25.7143 34.6052 25.3943 34.2852 25.0001 34.2852Z" fill="#FAB400"/>
<path d="M22.2872 29.7154L20.5715 27.429C20.4415 27.2547 20.2337 27.1426 20.0001 27.1426C19.7665 27.1426 19.5587 27.2547 19.4287 27.429L17.7137 29.7162C17.3551 30.1926 17.1429 30.7854 17.1429 31.4283C17.1429 33.0061 18.4222 34.2854 20.0001 34.2854C21.5779 34.2854 22.8572 33.0061 22.8572 31.4283C22.8572 30.7854 22.6451 30.1926 22.2872 29.7154Z" fill="#C80A50"/>
<path d="M20.0001 34.2859C20.7891 34.2859 21.4287 33.6463 21.4287 32.8573C21.4287 32.0683 20.7891 31.4287 20.0001 31.4287C19.2111 31.4287 18.5715 32.0683 18.5715 32.8573C18.5715 33.6463 19.2111 34.2859 20.0001 34.2859Z" fill="#F0F0F0"/>
<path d="M10.7143 34.2852H0.714286C0.32 34.2852 0 34.6052 0 34.9994V39.2852C0 39.6794 0.32 39.9994 0.714286 39.9994H10.7143C11.1086 39.9994 11.4286 39.6794 11.4286 39.2852V34.9994C11.4286 34.6052 11.1086 34.2852 10.7143 34.2852Z" fill="#FAB400"/>
<path d="M8.00146 29.7154L6.28575 27.429C6.15575 27.2547 5.94789 27.1426 5.71432 27.1426C5.48075 27.1426 5.27289 27.2547 5.14289 27.429L3.42789 29.7162C3.06932 30.1926 2.85718 30.7854 2.85718 31.4283C2.85718 33.0061 4.13646 34.2854 5.71432 34.2854C7.29218 34.2854 8.57146 33.0061 8.57146 31.4283C8.57146 30.7854 8.35932 30.1926 8.00146 29.7154Z" fill="#C80A50"/>
<path d="M5.71434 34.2859C6.50332 34.2859 7.14291 33.6463 7.14291 32.8573C7.14291 32.0683 6.50332 31.4287 5.71434 31.4287C4.92536 31.4287 4.28577 32.0683 4.28577 32.8573C4.28577 33.6463 4.92536 34.2859 5.71434 34.2859Z" fill="#F0F0F0"/>
<path d="M39.2857 34.2852H29.2857C28.8914 34.2852 28.5714 34.6052 28.5714 34.9994V39.2852C28.5714 39.6794 28.8914 39.9994 29.2857 39.9994H39.2857C39.68 39.9994 40 39.6794 40 39.2852V34.9994C40 34.6052 39.68 34.2852 39.2857 34.2852Z" fill="#FAB400"/>
<path d="M36.5729 29.7154L34.8572 27.429C34.7272 27.2547 34.5193 27.1426 34.2857 27.1426C34.0522 27.1426 33.8443 27.2547 33.7143 27.429L31.9993 29.7162C31.6407 30.1926 31.4286 30.7854 31.4286 31.4283C31.4286 33.0061 32.7079 34.2854 34.2857 34.2854C35.8636 34.2854 37.1429 33.0061 37.1429 31.4283C37.1429 30.7854 36.9307 30.1926 36.5729 29.7154Z" fill="#C80A50"/>
<path d="M34.2857 34.2859C35.0747 34.2859 35.7143 33.6463 35.7143 32.8573C35.7143 32.0683 35.0747 31.4287 34.2857 31.4287C33.4968 31.4287 32.8572 32.0683 32.8572 32.8573C32.8572 33.6463 33.4968 34.2859 34.2857 34.2859Z" fill="#F0F0F0"/>
</svg>
