<svg width="20" height="20" viewBox="0 0 20 20" fill="none" xmlns="http://www.w3.org/2000/svg">
<path d="M10 15C12.7614 15 15 12.7614 15 10C15 7.23858 12.7614 5 10 5C7.23858 5 5 7.23858 5 10C5 12.7614 7.23858 15 10 15Z" stroke="url(#paint0_linear_4822_6279)" stroke-width="1.25" stroke-linecap="round" stroke-linejoin="round"/>
<path d="M18.125 18.125L13.541 13.5301M17.5 13.75L13.75 17.5L17.5 13.75ZM6.875 3.125L3.12578 6.87422L6.875 3.125ZM18.125 5V1.875H15L18.125 5ZM1.875 5V1.875H5L1.875 5ZM18.125 1.875L13.5352 6.46484L18.125 1.875ZM1.875 1.875L6.46445 6.46445L1.875 1.875Z" stroke="url(#paint1_linear_4822_6279)" stroke-width="1.25" stroke-linecap="round" stroke-linejoin="round"/>
<defs>
<linearGradient id="paint0_linear_4822_6279" x1="10" y1="5" x2="10" y2="15" gradientUnits="userSpaceOnUse">
<stop stop-color="#2DC97A"/>
<stop offset="1" stop-color="#FF9933"/>
</linearGradient>
<linearGradient id="paint1_linear_4822_6279" x1="10" y1="1.875" x2="10" y2="18.125" gradientUnits="userSpaceOnUse">
<stop stop-color="#2DC97A"/>
<stop offset="1" stop-color="#FF9933"/>
</linearGradient>
</defs>
</svg>
